<?xml version="1.0" encoding="utf-8"?>
<!-- Generator: Adobe Illustrator 17.1.0, SVG Export Plug-In . SVG Version: 6.00 Build 0)  -->
<!DOCTYPE svg PUBLIC "-//W3C//DTD SVG 1.1//EN" "http://www.w3.org/Graphics/SVG/1.1/DTD/svg11.dtd">
<svg version="1.1" id="Layer_1" xmlns="http://www.w3.org/2000/svg" xmlns:xlink="http://www.w3.org/1999/xlink" x="0px" y="0px"
	 width="100px" height="100px" viewBox="0 0 100 100" enable-background="new 0 0 100 100" xml:space="preserve">
<g>
	<circle fill="#FFFFFF" stroke="#CCCCCC" stroke-miterlimit="10" cx="50" cy="50.1" r="47.4"/>
	<path fill="#E67817" d="M72.1,32.3c-2-1.2-4.2-1.5-6.5-1.1c-2,0.4-3.8,1.3-5.5,2.4c-2.1,1.3-4,2.9-5.9,4.6
		c-0.1,0.1-0.2,0.4-0.5,0.2c-0.8-0.5-1.6-1-2.5-1.5c1.5-1,3-2,4.5-3c-2-0.8-3.9-1.6-5.8-2.4c-0.2-0.1-0.4,0-0.5,0.1
		c-1.7,0.7-3.4,1.5-5.1,2.2c-0.1,0-0.3,0-0.3,0.2c1.6,0.9,3.2,1.8,4.9,2.7c-1,0.6-2,1.2-2.9,1.8c-0.3,0.2-0.4,0-0.5-0.1
		c-0.7-0.7-1.5-1.3-2.3-1.9c-2.3-1.8-4.7-3.5-7.5-4.4c-2.9-1-5.7-0.7-8.3,1c-1.4,0.9-2.3,2.3-2.4,4c-0.2,3,1.6,6,4.4,7.5
		c2,1,4,0.9,6-0.2C35,44,34.5,44.4,34.1,44h0c-0.2,0-0.5-0.1-0.7-0.1c-2.2-0.5-4.1-1.3-5.6-3.1c-1.9-2.4-1.3-5.7,1.4-7.1
		c2.3-1.2,4.7-1.3,7.2-0.5c2.5,0.8,4.6,2.4,6.7,4.1c0.6,0.5,1.3,1.1,1.9,1.7c-1.1,0.4-2,0.8-3,1.2c-0.3,0.1-0.5,0.1-0.8-0.1
		c-0.7-0.6-1.5-1-2.4-1.3c-0.8-0.2-1.5-0.4-2.3-0.2c-1.2,0.3-1.6,1.4-0.9,2.3c0.3,0.4,0.6,0.7,1,0.9c1.6,0.9,3.2,1,4.8,0.1
		c0.2-0.1,0.4-0.2,0.6,0c1,1,2,1.9,3.1,2.9c0.2,0.2,0.2,0.3-0.1,0.5c-0.9,0.5-1.7,1.1-2.5,1.7c-0.3,0.2-0.5,0.2-0.8,0.1
		c-0.7-0.4-1.5-0.7-2.4-0.7c-1-0.1-1.6,0.4-1.8,1.3c-0.2,1.1,0.3,1.7,1.3,1.9c1.3,0.2,2.4,0,3.5-0.8c0.2-0.2,0.4-0.2,0.6,0
		c0.8,0.6,1.7,1.1,2.5,1.7c0.3,0.2,0.3,0.3,0.1,0.6c-0.6,0.6-1.2,1.1-1.9,1.6c-0.7,0.4-1.5,0.6-2.4,0.6c-0.2,0-0.4-0.2-0.7-0.1
		c0.1,0.3,0.4,0.5,0.6,0.6c0.6,0.2,1.2,0.3,1.8,0.2c1.4-0.3,2.6-1.1,3.7-1.9c0.2-0.2,0.4-0.2,0.5,0.1c0.4,0.6,0.9,1.1,1.3,1.6
		c0.9,1.1,0.9,1.1,0.2,2.3c-1.4,2.2-2.3,4.5-2.4,7.1c-0.1,1.9,0.2,3.6,1.2,5.2c0.4,0.5,0.8,1,1.5,1.1c1.5,0.2,2.8-0.9,2.8-2.5
		c-0.2,0.1-0.4,0.3-0.7,0.4c-1.9,1-3.3,0.3-3.7-1.7c-0.2-1.1-0.1-2.3,0-3.4c0.4-2.4,1.3-4.5,2.7-6.5c0.1,0.1,0.1,0.1,0.1,0.2
		c1,2.1,1.5,4.3,1.3,6.7c-0.2,1.8-1,2.6-2.8,2.6c0.2,0.4,0.7,0.7,1.3,0.6c1.2-0.1,2-0.9,2.4-2.3c0.4-1.6,0.3-3.1-0.1-4.7
		c-0.3-1.2-0.9-2.2-1.4-3.3c-0.1-0.3-0.1-0.5,0.1-0.8c0.6-0.7,1.3-1.4,1.9-2.2c0.3-0.4,0.5-0.5,0.8-0.1c0.6,0.6,1.3,1.1,2,1.4
		c1,0.4,2,0.6,3,0.3c0.3-0.1,0.6-0.2,0.7-0.6c0.1-0.2,0.1-0.4-0.2-0.3c-0.3,0.1-0.6,0.1-0.8,0.1c-1.7,0.1-3-0.8-4.2-1.8
		c-0.2-0.2-0.1-0.3,0.1-0.5c0.9-0.8,1.8-1.6,2.7-2.4c0.3-0.3,0.4-0.3,0.7-0.1c1.2,0.8,2.5,1.2,3.9,0.7c0.8-0.3,1.2-0.9,1.1-1.7
		c-0.2-1.2-1-1.8-2.2-1.7c-1.1,0.1-2.2,0.5-3.2,0.9c-0.3,0.1-0.4,0.1-0.7,0c-0.6-0.4-1.1-0.8-1.7-1.1c-0.3-0.2-0.3-0.3-0.1-0.5
		c1.3-1.1,2.7-2.3,4-3.4c0.2-0.2,0.4-0.2,0.7-0.2c0.7,0.2,1.4,0.3,2.1,0.3c1.4,0,2.7-0.3,3.6-1.5c0.9-1.2,0.1-2.8-1.3-2.9
		c-0.8-0.1-1.5,0.2-2.3,0.5c-1.2,0.6-2.3,1.4-3.3,2.3c-0.1,0.1-0.3,0.3-0.5,0.2c-0.8-0.4-1.6-0.8-2.4-1.2c2.6-2.4,5.4-4.5,8.8-5.7
		c2.4-0.8,4.8-0.7,6.9,0.9c1.4,1,2.3,2.3,1.9,4.1c-0.5,2.6-2.2,4-4.6,4.8c-1.9,0.6-3.8,0.5-5.8,0.3c0,0-0.1,0.1-0.1,0.1v0
		c1.7,0.7,3.5,1.1,5.4,1.1c3.4-0.1,6.1-2.2,6.8-5.5C75.5,36.2,74.5,33.7,72.1,32.3z M39.3,41.7c-0.8,0.1-1.5,0-2.2-0.3
		c-0.7-0.3-1-0.8-0.9-1.4c0-0.4,0.2-0.7,0.7-0.6c0.2,0,0.4,0,0.6,0.1c1.3,0.4,2.3,1.2,3.4,1.9C40.3,41.6,39.8,41.6,39.3,41.7z
		 M39.8,48.9c-0.8,0.2-1.4-0.2-1.6-1c-0.1-0.5,0.1-0.8,0.6-0.8c0.9,0,1.7,0.5,2.6,0.9C40.9,48.5,40.4,48.8,39.8,48.9z M61,47
		c0.7,0,1,0.2,0.9,0.6c0,0.5-0.5,1-1,1c-0.5,0-1-0.2-1.4-0.5c-0.3-0.2-0.5-0.4-0.9-0.6C59.5,47.3,60.2,47,61,47z M63.5,38.5
		c0.4-0.1,0.9-0.3,1.2,0.2c0.3,0.4,0.1,1.2-0.4,1.5c-0.3,0.3-0.7,0.4-1.1,0.5c-1,0.2-2.1,0.2-3.2-0.1C61.2,39.7,62.3,39,63.5,38.5z
		 M46.7,34.3c0.6-0.3,1.2-0.6,1.7-1c1-0.7,1.9-0.8,2.9,0c0.4,0.3,0.9,0.5,1.4,0.7c-1,0.6-1.9,1.2-2.8,1.8c-0.2,0.1-0.3,0.1-0.4,0
		C48.6,35.3,47.7,34.8,46.7,34.3z M47.3,39.3c0.9-0.6,1.7-1.1,2.6-1.7c0.2-0.1,0.3-0.1,0.4,0c0.9,0.5,1.9,1.1,2.9,1.6
		c-1,0.8-2,1.6-2.9,2.5c-0.2,0.1-0.3,0.2-0.4,0c-0.8-0.7-1.7-1.3-2.5-2C47.2,39.5,47.1,39.5,47.3,39.3z M50.4,43.4
		c0.6,0.5,1.3,1,2,1.5c0.1,0,0.1,0.1,0.2,0.2c-0.1,0.1-0.2,0.1-0.2,0.2c-0.9,0.7-1.9,1.4-2.8,2.2c-0.2,0.1-0.3,0.2-0.5,0
		c-0.6-0.5-1.1-1.1-1.7-1.6c-0.2-0.2-0.2-0.3,0-0.4c0.9-0.7,1.8-1.3,2.6-2C50.1,43.3,50.2,43.3,50.4,43.4z M43.2,41.6
		c0.8-0.4,1.8-0.9,2.8-1.4c0.2-0.1,0.3,0,0.5,0.1c0.8,0.6,1.5,1.3,2.3,1.9c0.2,0.2,0.2,0.3,0,0.4c-0.9,0.6-1.7,1.2-2.5,1.7
		c-0.2,0.1-0.3,0.2-0.5,0C44.9,43.4,44.1,42.5,43.2,41.6z M46.7,50c-0.2,0.1-0.3,0.2-0.5,0c-0.8-0.6-1.7-1.3-2.5-1.9
		c0.9-0.6,1.7-1.2,2.4-1.7c0.2-0.1,0.3-0.1,0.5,0c0.6,0.6,1.2,1.1,1.9,1.7c0.2,0.2,0.2,0.3,0,0.5C47.9,49,47.3,49.5,46.7,50z
		 M52,51.5c-0.5,0.6-1.1,1.3-1.6,1.9c-0.2,0.3-0.4,0.3-0.6,0.1c-0.7-0.7-1.3-1.4-2-2.1c-0.1-0.1-0.1-0.2,0-0.3
		c0.6-0.6,1.2-1.2,1.8-1.8c0,0,0.1-0.1,0.1-0.1c0.1,0.1,0.2,0.1,0.3,0.2c0.7,0.6,1.3,1.2,2,1.7C52.2,51.2,52.2,51.3,52,51.5z
		 M55.8,47.3c0.2,0.1,0.2,0.2,0,0.4c-1,0.8-1.9,1.6-2.8,2.5c-0.1,0.1-0.1,0.1-0.2,0.2c-0.1-0.1-0.2-0.1-0.2-0.2
		c-0.6-0.5-1.1-0.9-1.7-1.4c-0.2-0.2-0.2-0.3,0-0.4c0.9-0.7,1.8-1.5,2.7-2.2c0.1-0.1,0.3-0.2,0.4,0C54.6,46.4,55.2,46.9,55.8,47.3z
		 M57.3,41.1c-1.3,1.1-2.5,2.1-3.7,3.1c-0.1,0.1-0.2,0.1-0.4,0c-0.7-0.5-1.3-1.1-1.9-1.6c1-0.8,2-1.7,2.9-2.5
		c0.3-0.3,0.5-0.3,0.9-0.1C55.7,40.4,56.5,40.8,57.3,41.1z"/>
</g>
</svg>
