<?xml version="1.0" encoding="utf-8"?>
<!-- Generator: Adobe Illustrator 17.1.0, SVG Export Plug-In . SVG Version: 6.00 Build 0)  -->
<!DOCTYPE svg PUBLIC "-//W3C//DTD SVG 1.1//EN" "http://www.w3.org/Graphics/SVG/1.1/DTD/svg11.dtd">
<svg version="1.1" id="Layer_1" xmlns="http://www.w3.org/2000/svg" xmlns:xlink="http://www.w3.org/1999/xlink" x="0px" y="0px"
	 width="100px" height="100px" viewBox="0 0 100 100" enable-background="new 0 0 100 100" xml:space="preserve">
<g>
	<circle fill="#FFFFFF" stroke="#CCCCCC" stroke-miterlimit="10" cx="50" cy="50.1" r="47.4"/>
	<g>
		<path fill="#D9251D" d="M48.4,54.8C48.4,54.8,48.4,54.8,48.4,54.8C48.4,54.8,48.4,54.8,48.4,54.8z"/>
		<path fill="#D9251D" d="M27.6,37.3C27.6,37.3,27.6,37.3,27.6,37.3L27.6,37.3L27.6,37.3z"/>
		<path fill="#D9251D" d="M54.9,70.1c0.1,0,0.2,0,0.2,0C55,70.1,55,70.1,54.9,70.1z"/>
		<polygon fill="#D9251D" points="57,29.3 57,29.4 57,29.3 		"/>
		<polygon fill="#D9251D" points="35.7,72.6 35.7,72.6 35.7,72.6 35.7,72.6 35.7,72.6 		"/>
		<path fill="#D9251D" d="M41.3,40.9C41.3,40.9,41.3,40.9,41.3,40.9C41.3,40.9,41.3,40.9,41.3,40.9z"/>
		<path fill="#D9251D" d="M34.3,31.1C34.3,31.1,34.3,31.1,34.3,31.1C34.3,31.1,34.3,31.1,34.3,31.1z"/>
		<path fill="#D9251D" d="M25.2,51.8C25.2,51.8,25.2,51.8,25.2,51.8C25.2,51.8,25.2,51.8,25.2,51.8L25.2,51.8z"/>
		<polygon fill="#D9251D" points="37.1,72.6 37.1,72.6 37.1,72.6 37.1,72.6 37.1,72.6 		"/>
		<path fill="#D9251D" d="M45.7,59.2c0,0,0.1,0.1,0.1,0.2C45.8,59.3,45.8,59.3,45.7,59.2C45.7,59.2,45.7,59.2,45.7,59.2z"/>
		<polygon fill="#D9251D" points="41.3,40.4 41.3,40.4 41.3,40.4 		"/>
		<polygon fill="#D9251D" points="33.2,59.8 33.2,59.8 33.2,59.8 		"/>
		<polygon fill="#D9251D" points="34.6,52 34.6,52.1 34.6,52.1 		"/>
		<path fill="#D9251D" d="M56,71.1C56.1,71.1,56.1,71.1,56,71.1C56.1,71.1,56.1,71.1,56,71.1C56.1,71.1,56,71.1,56,71.1
			C56,71.1,56,71.1,56,71.1z"/>
		<polygon fill="#D9251D" points="55.6,51 55.6,51 55.5,51 		"/>
		<path fill="#D9251D" d="M35.8,62.9C35.8,62.9,35.8,62.9,35.8,62.9C35.8,62.9,35.8,62.9,35.8,62.9C35.8,62.9,35.8,62.9,35.8,62.9z"
			/>
		<path fill="#D9251D" d="M74.7,42.2c0-0.2,0.3-0.4,0.3-0.5c0-0.4,0-0.9,0-1.3c0-0.1-0.3-0.2-0.2-0.4l-0.1-0.3
			c-0.2-0.1-0.3-0.7-0.4-0.7h0h0c-0.1,0-0.2,0.2-0.3,0.2c-0.4-0.1-1.1,0.4-1.1,0.2v0v0c0,0-0.2,0-0.3,0c-0.2,0-0.4,0-0.5-0.1
			c-0.2,0.1-0.3,0-0.5-0.1c-0.1-0.1-0.3-0.2-0.5-0.2h0.1c0,0-0.3-0.2-0.3-0.2v0c-1,0-0.2-0.1-0.3-0.2c-0.2-0.1-0.3-0.2-0.4-0.4
			c-0.1-0.1-0.2-0.2-0.1-0.4c-0.2-0.3,0-0.6-0.1-0.8c0,0,0,0,0,0C70,36.9,70,36.7,70,36.5v-0.1c0-0.2-0.3-0.5-0.4-1.5h0
			c-0.1,0-0.2,0-0.2,0h0c-0.1,0-0.4,0.3-0.5,0.3c-0.2,0-0.9,0.3-0.9,0.1v0c0,0,0.2,0,0.1,0C68,35.2,68,35.2,68,35.1v0.1
			c0-0.1-0.2-0.2-0.3-0.2h0c-0.1-1-0.2-0.2-0.3-0.2c-0.1,0-0.7-0.1-0.7-0.2c-0.1,0-0.7-0.1-0.7-0.2v0c0-0.1,0.2-0.1,0.1-0.2
			C65.9,34.1,66,34,66,33.9V34h0.5c-0.3,0-0.7-0.4-0.9-0.6c-0.1-0.1-0.7-0.3-0.7-0.3v0l0,0c0,0,0.1,0,0.1-0.1C65,33,65,32.8,65,32.7
			v0c0,0,0.1-0.1,0-0.1c-0.1-0.1,0-0.2,0-0.3v0c0-0.1,0-0.2,0-0.4c-0.1-0.2-0.1-0.4-0.1-0.6c-0.1,0-0.2-0.2-0.3-0.2c0,0,0-0.1,0-0.1
			c-0.2,0-0.3,0-0.5,0c-0.3,0-1.1,0.3-1.1,0.3v0c0,0.1,0.1,0.1,0.1,0.1c0,0.2-0.1,0.2-0.1,0.2v0c0,0-0.1,0.1-0.1,0.1
			c-0.1,0.1,0.4,0.2-0.3,0.2h0c0,0-0.1,0.1-0.1,0.1c-0.3,0.3-0.4,0.2-0.6,0c-0.3,0-0.5-0.1-0.7-0.1h0c-0.2-1-0.5-0.5-0.7-0.7
			c-0.3,0-0.4-0.3-0.6-0.4l0.1-0.1v0c-1,0-0.3,0.2-0.4-0.8h-0.1c0,0-0.6,0.3-0.6,0.3c-0.1-0.1,0.1,0.1-0.9,0v0v0
			c0-0.1,0.2-0.1,0-0.2c-0.2,0,0.1-0.1,0-0.1h0c0,0-0.1-0.2-0.1-0.2c-0.3-0.1-0.8-0.3-0.8-0.4v0v0c0,0-0.1,0.3-0.1,0.2
			c-0.2,0-0.2,0.3-0.4,0.3h0c0,0-0.1-0.2-0.1-0.2c-0.2,0.1-0.3,0.1-0.5,0.3L56,30c0,0,0,0,0,0v0c-1,0.2-0.2,0.4-0.3,0.7
			c0,0.1-0.1,0.2-0.1,0.3c-0.2,0.5,0,0.5-0.4,0.2C54.3,30.9,53,31,53,30.9V31h-0.4c0,0-0.2,0-0.2,0c-0.1,0-0.4,0-0.4,0v0
			c0,0,0.1,0.1-0.1,0.1h0c0,0-0.2-0.1-0.3-0.1c-0.5,0-0.7-0.1-1.7-0.2v0v0c0,0-0.5,0.2-0.9,0.2h0.2c-0.2,0-1.3-0.1-1.3,0.3v0
			c0,0.3,0.2,0.7,0.2,1c0,0.1,0.2,0.2,0.2,0.3c0,0,0.1,0,0.1,0c0,0,0,0,0,0c0,0,0,0,0,0c0,0.1,0.1,0.3,0.1,0.3h0
			c0.1,0,0.1,0.6-0.5,0.6c-0.3,0-0.8-0.1-1.2-0.1c-0.3,0-0.9,0-0.9,0v0c0,0,0,0,0,0c-0.6,0-1.2,0-1.8,0c-0.1,0-0.2,0.1-0.2,0.1v0
			c0,0.1-0.2,0.2-0.3,0.2c0,0.2-0.1,0.3-0.2,0.4c0,0,0,0.1,0,0.1c-0.1,0.4-0.1,0.7,0,1.1c0,0.1,0,0.2,0,0.3c0,0,0,0.3,0,0.3
			c0.1,0.3,0.2,0.1,0.3,1.1h0c0.1,0,0.1-0.1,0.1,0c0.2,0.1,0.2,0.1,0.3,0.3c0.1,0.1,0.1,0.1,0.2,0.2c0.1,0.2,0,0.2-0.2,0.1
			c0,0,0,0,0,0c-0.2,0.1-0.3,0.1-0.5,0.2c-0.1,0.1-0.3,0.2-0.4,0.3c-0.1,0.3,0,0.5-0.3,0.8l0,0c0,0.2-0.1,0.3,0,0.5
			c0.1,0.6,0.2,1.1,0.3,1.7c0,0,0,0,0,0c0,0.1,0,0.2,0,0.2l0,0l0,0c0.1,0.3,0.4,0.5,0.4,0.8c0.1,0.1,0.3,0.2,0.3,0.3v0v0
			c0,0.1-0.2,0.1-0.2,0.2c0.1,0.2,0,0.4,0,0.6c0,0-0.1,0.2,0,0.2c0.1,0.2,0.1,0.7,0.1,0.7H44v-0.4c0,0.1-0.1,0.2-0.1,0.3
			c0.2,0.2,0.1,0.5,0.1,0.8v0v0c0,0.1,0,0.3,0.1,0.4c0.2,0.2,0.2,0,0.3,1h0.1c0.2,0-0.4,0.3-0.4,0.6v-0.1c0,0,0.2,0.1,0.3,0.1
			c0.2,0.2,0.4,0.4,0.4,0.7l0.1,0c0.2,0.3,0.3,0.5,0.3,0.8l0,0h0c0,0,0,0,0,0c0.1,0.1,0.2,0.3,0.3,0.5c0.1,0.2,0.2,0.4,0.3,0.6
			c0,0,0-0.3,0-0.3c0.1,0.2,0.2,0.1,0.2,0.1H46v0.7c0,0.1,0,0.2,0.1,0.2c0.1,0.1,0.2,0.4,0.2,0.6c0.2,0.1,0.1-0.5,0.1,0.5h0h0
			c0.1,0-0.3,0-0.3,0.1c0.2,0.1-0.2,0-0.2,0.3v0c0,0.3,0.3,0.3,0.5,0.4c0.2,0.1,0.5,0.3,0.5,0.4v0c0,0.1,0.3,0.3,0.4,0.4
			c0.1,0,0.4-0.6,0.5,0.4h0c0.1,0,0.2,0,0.2,0h0c0.1,0,0.1,0.1,0.2,0.2c0,0,0,0,0,0c0.1,0.1,0.1,0.1,0.2,0.2
			c0.1-0.2-0.6-0.4,0.4-0.5v0c0-0.2,0.6-0.3,0.8-0.6c0.1-0.1,0.5-0.2,0.7-0.2h-0.1h0c0.1,0,0.1,0.2,0.1,0.1c0.1-0.2,0.3-0.1,0.5-0.1
			h0h0l0,0c0,0-0.3-0.2-0.3-0.2c0.2-0.1,0.3-0.3,0.3-0.3v0c0,0,0.4,0,0.4-0.1c0.3-0.3,0.9-0.3,1.2-0.3l0,0c0,0,0.1,0,0.2,0
			c0,0,0.1-0.1,0.1-0.1c0,0,0,0,0.1,0h0c0.1,0,0.2,0,0.4,0c0.1,0,0.4,0,0.5,0c0.7-0.1,1.2-0.1,2.2,0v0c0,0,0,0,0,0
			c0.1,0,0.2,0,0.3,0c0,0,0,0,0.1,0c0.1,0,0.2,0,0.3,0c0.4,0,0.3,0.1,1.3,0.2v0v0c0,0.1,0.3-0.4,0.5-0.4h0h0c0.1,0,0.1,0.4,0.2,0.4
			c0.2,0,0.4-0.4,0.6,0.6c0,0-0.3,0-0.3,0v0c0,0,0.2,0,0.3,0c0.2,0,0.4,0,0.6,0.2c0.2,0,0.4,0.1,0.4,0.2c0.2,0-0.2,0.1-0.1,0.2
			c0.1,0.1-0.2,0.1-0.2,0.3v0c1,0,0.8,0.3,0.8,0.4c0.2,0.1,0.8,0.5,0.8,0.5h0c0.1,0,0.1-0.2,0.1-0.1c0.2,0,0.2,0,0.2,0v0
			c0,0.3,0.5,0.6,0.7,0.9c0.1,0.1,0.3,0.3,0.3,0.4v0c0,0,0.1,0.1,0.1,0.2c0.2,0.1,0.3,0,0.4,0.2c0.2,0.1,0.3,0.3,0.3,0.3h0
			c0,0-0.1,0.3,0,0.4c0.1,0.1,0.1,0.3,0.1,0.4c0.2,0.2,0.3,0.6,0.3,0.9c0.2,0.3,0.2,0.7,0.3,1c0.1,0.4,0.2,0.9,0.2,1.3
			c0,0,0,0.1,0,0.1c0,0,0,0.1,0,0.1c0,0.2,0,0.3,0,0.5c0,0.7,0,1.3,0,2c0,0.1,0.1,0.2,0.1,0.4c0,0,0.1,0.1,0.1,0.1V63l0,0h-0.2
			c0,0,0.2,0.3,0.2,0.3V63h0.1c0,1-0.5,1-0.6,1h0h0c0,0,0,0.3-0.1,0.3c0,0.2-0.1,0.7-0.3,0.7H64v-0.2c0,0,0.2,0,0,0
			c0,0.1,0.1,0.2,0,0.2h0c0,0-0.1,0.2-0.1,0.3c0,0.2-0.1,0.4-0.2,0.6c-0.1,0.1-0.1,0.2-0.2,0.3c0,0.1,0,0.2-0.1,0.3l0,0
			c0,0,0,0.1-0.1,0.1c-0.1,0.1,0,0.2-0.1,0.2c0,0.2-0.2,0.4-0.2,0.4v0c-1,0.2-0.4,0.3-0.5,0.5c0,0.1-0.2,0.3-0.3,0.3h0.1h0
			c-0.1,0-0.1-0.1-0.2-0.1c0,0.1-0.1,0.1-0.3,0.1h0c-0.2,0-0.3,0.6-0.5,0.7c-0.1,0.1-0.1,0.3-0.2,0.3l-0.4,0.1
			c-0.1,0-0.7,0.2-0.7,0.2v0c0,0,0.1,0,0.1,0.1C60,69.5,60,69.5,60,69.5v0c0,0,0.1,0,0.1,0.1c-0.4,0.3-0.9,0.6-1.4,0.8
			c0,0,0,0.2,0,0.2C58.5,70.7,58.3,71,58,71h0v-0.4c0,0-0.1,0.4-0.1,0.4H58v-0.3c-1,0.1-0.7,0.3-1,0.3h0c0,0-0.1,0-0.1,0h0
			c-0.2,0-0.5,0.1-0.7,0.1c-0.5,0.2-0.8,0.1-1.2,0.2c-0.1,0,0.1,0,0.1-0.2v0c0,0-0.3-0.1-0.3-0.1c-0.1-0.2-0.3-0.5-0.3-0.8l0,0
			c-0.1-0.2-0.1-0.3,0.2-0.2c0,0,0.1,0,0.1,0L54.5,70H54v0c0,0,0.2,0.1,0.3,0c0.6-0.1,1.7-0.1,1.7-0.1V70c0,0,0.8,0,0.9,0
			c0.3,0,0.6-0.3,1-0.4l0,0c0.1-0.1,0.2-0.1,0.3-0.1c0.1-0.1,0.3-0.1,0.4-0.2c0,0,0,0,0,0c0.1-0.1,0.3-0.1,0.4-0.2c0,0,0,0,0,0
			c0.2-0.1,0.3-0.2,0.5-0.2l0,0c0,0,0.1-0.1,0.1-0.1c0.1-0.1,0.2-0.2,0.4-0.3l0,0c0.3-0.2,0.5-0.4,0.8-0.6c0.1-0.2,0.3-0.4,0.5-0.5
			c0.1-0.2,0.2-0.3,0.3-0.3c0-0.1,0.1-0.3,0.3-0.3l0,0c0.1-0.1,0.2-0.2,0.3-0.4c-0.1-0.2,0.1-0.2,0.2-0.3l0,0l0,0
			c0.1-0.2,0.2-0.2,0.3-0.4c0-0.3,0.2-0.5,0.3-0.5H63v-0.2c0,0,0,0,0,0c-0.1-0.2,0.2-0.3,0.2-0.5l0-0.1c0,0,0.1-0.2,0.1-0.2h0h0
			c0,0,0-1,0.2-1h0c0,0-0.5,0.3-0.5,0.3v0v0c0-0.1,0.3-0.2,0.3-0.3c0.2-1.2,0.3-2.4,0.1-3.6l0,0c0-0.1,0-0.2,0-0.2
			c-0.1-0.1,0-0.1,0-0.2l0,0l0,0l0,0.1h0c-0.2,0-0.2-1-0.2-1h0h0c0,0,0,0,0,0c-0.1-0.2,0-0.4-0.1-0.6c-0.1-0.1,0-0.2,0-0.3v0
			c0-0.2-0.2-0.3-0.3-0.4c-0.1-0.1-0.2-0.2-0.3-0.3c0,0,0-0.1-0.1-0.1c-0.1-0.1-0.2-0.3-0.2-0.3h0c0,0-0.4-0.1-0.5-0.2
			c-0.1,0-0.6-0.1-0.6-0.3v0v0c0,0,0.3-0.1,0.3-0.1c-0.1,0,0,0,0-0.1C61.1,55.2,61.1,55,61,55h-1v-0.3c0-0.2,0.2-0.2,0.1-0.4
			c-0.1,0,0.1-0.1,0.1-0.2c-0.1-0.1,0-0.2,0-0.2h0c0,0-0.4,0.1-0.5,0c-0.2-0.1-0.4,0-0.6,0h0c0-1-0.3-0.5-0.3-0.5
			C58.5,53.5,58,53,58,53v-0.1c0,0,0,0,0,0l0,0.1v0c0-0.1-0.2-0.2-0.4-0.3c-0.3-0.1-0.5-0.2-0.8-0.3c0,0,0.1,0,0.1,0
			c-0.2,0-0.4,0-0.6-0.1c-0.3,0-0.6-0.2-0.9-0.2l0-0.1c-0.1,0-0.2,0-0.4,0c-0.2,0-0.4,0-0.5,0c0,0,0,0,0,0c-0.1,0-0.5,0-0.5,0v0.2
			c0,0.1-0.2,0.1-0.4,0c-0.3,0-0.5,0.1-0.8,0.1c0,0,0,0,0,0c-0.4,0.2-0.7,0.2-1.1,0.3c0,0,0,0,0,0c-0.2,0.1-0.5,0.2-0.7,0.3
			c0,0,0,0,0,0c-0.2,0.1-0.3,0.2-0.5,0.2c-0.1,0.2-0.3,0.2-0.4,0.2c-0.1,0.2-0.3,0.3-0.5,0.3l0,0v0c-0.1,0-0.1,0.1-0.2,0.2
			c-0.1,0.1-0.3,0.3-0.5,0.3l0,0c-0.1,0.2-0.4,0.2-0.5,0.5c0,0.1-0.1,0.2-0.2,0.2c0,0-0.1-0.3,0-0.3c-0.2-0.1-0.3,0.3-0.5-0.7H47
			v0.4c0,0,0.2-0.1,0.2-0.1c-0.1-0.1,0.2-0.3,0.1-0.3H47v-0.1c-1-0.2-0.5-0.3-0.6-0.5c-0.1-0.1-0.4-0.2-0.4-0.3v0c0,0,0.3,0,0.3,0
			c-0.1-0.1,0.2-0.2,0.1-0.2h0c0,0-0.3-0.4-0.4-0.7c-0.1,0-0.2-0.3-0.2-0.3h0c0-1-0.3-0.4-0.5-0.6c-0.1,0-0.3-0.2-0.3-0.3v0
			c0,0-0.4,0-0.4-0.1C44.5,51,44,50.9,44,50.8v0c0,0,0.5-0.2,0.4-0.3c-0.1-0.1,0.4-0.5,0.3-0.5h0c0,0-0.2,0.1-0.2,0.1
			c-0.2-0.1-0.5-0.2-0.5-0.4v0v0c0-0.2,0.1-0.4-0.1-0.6c-0.1-0.1-0.1-0.3-0.2-0.5c-0.2-0.2,0-0.4-0.3-0.6l0.1,0h0c0,0,0,0,0,0
			c-0.1-0.2-0.2-0.3-0.2-0.6c-0.2-0.1-0.2-0.3-0.3-0.5c0,0,0,0,0,0c0-0.1-0.1-0.2-0.1-0.3c-0.1-0.1-0.2-0.3-0.2-0.4
			c-0.1-0.2-0.2-0.4-0.2-0.7l0,0l0,0c0-0.1,0-0.2,0-0.3c-0.2-0.2-0.2-0.5-0.3-0.7l0,0c-0.1-0.1-0.1-0.2-0.1-0.3l0,0l0,0l0,0
			c0,0,0,0,0,0C42,44,42,43.9,41.9,43.8c0-0.2-0.1-0.5-0.1-0.7c-0.1-0.3-0.2-0.1-0.2-1.1H41v0.4c0,0,0.3-0.2,0.3-0.3
			c-0.1-0.3,0.2-0.1,0.2-1.1h0c0,0,0,0.1,0,0.1C41.4,41,41.3,41,41.3,41h0c0,0,0,0,0,0h0c-0.1,0-0.1-0.3-0.1-0.5
			c-0.1-0.3-0.1-0.6-0.1-0.9c0-0.3-0.1-0.6-0.1-0.9c0,0,0,0,0-0.1c-0.1-0.2-0.1-0.4-0.1-0.6l0,0l0,0c0-0.3,0-0.7-0.1-1
			c-0.1-1.9-0.1-3.8,0-5.7c0-0.2-0.1-0.4,0.1-0.7c0-0.2,0-0.4,0-0.7l0,0c0-0.2,0-0.4,0.1-0.6l0,0c0.2-0.1,0.1-0.2,0.1-0.3v0
			c-0.1-0.3,0-0.5,0-0.8c0.1-0.4,0.1-0.8,0.2-1.2c0-0.1,0-0.2,0-0.4c0,0,0,0,0-0.1c0-0.1,0-0.2,0.1-0.2c0-0.3,0-0.6,0.2-0.8
			c0,0-0.5,0-0.5,0c0-0.4-0.1-0.7-0.1-1.1v0.1c0-0.3,1.1-0.7,1.2-0.7H42c0,0,0-0.3,0-0.4c0-0.2,0.3-0.6,0.2-1.6h0c0,0-0.1,0.1-0.1,0
			c-0.1-0.1-0.2,0-0.2,0h0c-0.1,0-0.1,0.2-0.2,0.2c-0.2-0.1-0.7,0.2-0.7,0.1v0v0c-1-0.2-1.3-0.1-1.9,0c-0.2,0.1-0.4,0.1-0.7,0.2
			c0,0,0,0-0.1,0c-0.2,0.1-0.3,0.2-0.5,0.2c0,0,0,0,0,0c-0.2,0.1-0.3,0.3-0.5,0.3h0h0c-0.1,0-0.4,0.4-1.4,0.4v0
			c0,0.1,0.4,0.2,0.4,0.2c-0.1,0.1,0.3,0.4,0.2,0.4H36v-0.2c0,0.1,0.1,0.3,0,0.4c0,0.2,0,0.4-0.1,0.6c-0.1,0.2-0.1,0.5-0.2,0.6
			c0,0.2,0-0.4-0.2,0.6H35v0c-1,0,0.1,0,0.1,0.1c0,0.3,0,0.6-0.2,0.8c0,0,0,0,0,0c0,0.3-0.1,0.6-0.2,0.9c0,0,0,0,0,0
			c0,0.2,0,0.4-0.1,0.6c0,0.2,0,0.5-0.1,0.5h0c0,0-0.2,0.2-0.2,0.3c0,0.4-0.4,0.7-0.4,1.1v0v0c0,0.2,0.2,0.4,0.2,0.6
			c0,0.8,0.1,1.5,0.1,2.3c0,0.4,0.1,0.7,0.2,1.1l0,0c0,0.2,0.1,0.6,0.2,0.6H34v0.1c0,0.2,0.6-0.1,0.6-0.1h0c0.2,0,0.1,0.8,0.1,1
			c0,0.2,0.1,0,0.1,1H34v-0.2c0,0.1-0.1,0.2-0.1,0.2c0.2,0.2,0.1,0.4,0.1,0.6v0l0.5-0.4C34.6,37.2,35,37,35,37h0
			c0.2,1-0.1,0.8,0.1,0.8c0.2,0.2,0.2,0.2,0.2,1.2h0c0.1,0-0.4,0.1-0.3,0.1c0.2,0.2-0.1,0.4-0.1,0.7v0l0.3,0
			c0.1,0.2,0.4,0.4,0.4,0.6c0.2,0.2,0.4,0.5,0.4,0.5h0c0,0,0.2,0.3,0.2,0.4c0.1,0.2,0.2,0.6,0.2,0.6h0c0,0,0,0.4,0.1,0.4
			c0.1,0.1,0.1-0.4,0.2,0.6h0c0,0-0.6-0.1-0.5,0c0.2,0.2-0.2,0.3-0.2,0.6v0c0,0.2,0.5,0.3,0.5,0.5c0.2,0.1,0.5,0.3,0.5,0.5v0
			c0,0.2,0.5,0.2,0.6,0.4c0.2,0,0.5,0.1,0.5,0.1h0c0.1,0,0.2,0.6,0.3,0.8c0.2,0.1,0.2,0.4,0.3,0.5c0.1,0.1,0.3,0.4,0.3,0.6v0
			c0,0.2,0.3,0.3,0.3,0.5c0.2,0.1,0.3,0.5,0.3,0.5h0c0.1,0,0.2,0.4,0.3,0.6c0.2,0.1,0.2,0.4,0.2,0.4H40v-0.1c0,0,0.1,0.1,0.1,0.1
			c0.1,0,0.4,0.2,0.4,0.3c0.1,0.1,0.5,0.3,0.5,0.4v0c0,0.1-0.1,0.1-0.1,0.2c0.2,0,0.1,0.2,0.2,0.3c0.1,0.1,0.1,0.3,0.2,0.4
			c0.1,0.1,0.2,0.5,0.2,0.5h0c0.1,0,0.1-0.2,0.2-0.1C41.9,51,42,51,42,51h-1v0.6c1,0,0.9,0.2,0.9,0.3c0.2,0.1,1.1,0.3,1.1,0.5v0v0
			c0,0-0.1,0.1-0.1,0.2c0.2,0.1,0.1,0.5,0.2,0.5h0c0.1,0,0.2,0.2,0.3,0.3c0.4,0.4,0.8,0.9,1.2,1.3c0.2,0,0.4,0.4,0.4,0.4h0
			c0.1,0-1-0.1,0,0v0h0.2c0.2,0,0.3-0.1,0.4,0c0.1,0.1,0.3,0,0.4,0h0c0,0,0.1,0.4,0.1,0.4c0.2,0,0.3,0.3,0.4,0.4
			c0.2,0.1,0.4,0.3,0.5,0.5c0.2,0.1,0.2,0.2-0.1,0.4c0,0.2-0.1,0.2-0.2,0.4c-0.1,0.6-0.3-0.1-0.5-0.1h0C46,57,46,57.2,46,57.2v0
			c0-0.1,0-0.2-1-0.2l0,0v0c0-0.1,0.4-1,0.3-1h0c-0.3,0-0.6-0.1-0.9-0.3c-0.1-0.1-0.4,0.2-0.4,0.1v0v0c0,0-0.3-0.1-0.3-0.2l0.2,0
			c0-0.1-0.4-0.6-0.5-0.6h0c0,0-0.1,0.1-0.1,0c-0.1,0-0.6-0.1-0.6-0.2c-0.2,0,0.3-0.1-0.7-0.2v0v0c0-0.2,0-0.4-0.2-0.6
			c-0.1-0.1-0.1-0.2-0.1-0.3c-0.1,0-0.1-0.1-0.2-0.2c-0.1,0-0.2-0.1-0.2-0.3c-0.1,0-0.1-0.2-0.2-0.2c0,0,0,0,0,0l0,0
			c-0.1,0-0.5-0.2-0.6-0.3c-0.1,0-0.5-0.2-0.5-0.2v0c0-0.1,0.1-0.1,0-0.2c-0.3-0.4-0.6-0.7-0.9-1.1c-0.1,0,0-0.1,0-0.1h0
			c-0.1,0,0.1-0.3,0-0.3C39,50.5,39,50.3,39,50.1v0v0c-1-0.2-0.5-0.4-0.6-0.7c-0.1-0.1-0.3-0.1-0.3-0.3c-0.2,0-0.2-0.2-0.3-0.2h0
			c0,0-0.3-0.5-0.3-0.5C37.3,48.4,37,48,37,48v0c0,0,0.2,0.2,0.2,0.1c-0.1-0.1-0.5-0.1-0.6-0.3c-0.1-0.1-0.6-0.2-0.6-0.3v0
			c0-0.2,0.2-0.2,0.1-0.4C36,47.1,36.4,47,36.3,47h0c0,0,0-0.3,0-0.4c-0.1-0.1-0.2,0.4-0.2-0.6h0c0,0-0.4-0.3-0.6-0.5
			C35.4,45.3,35,45.2,35,45v0v0c0,0,0.2-0.1,0.2-0.1c-0.1-0.1-0.6-0.3-0.6-0.5c-0.1-0.1-0.6-0.2-0.6-0.3v0c0,0,0.9-0.2,0.9-0.2h0
			c-0.2,0-0.2-0.3-0.3-0.5c-0.1-0.2-0.2,0.5-0.3-0.5H34v0c0,0,0.1-0.1,0.1-0.1C34,42.7,34,42.6,34,42.4c-0.2-0.2-0.2-0.5-0.3-0.7
			c-0.1-0.2-0.2,0.3-0.1-0.7h0c0,0-0.2,0-0.2,0c-0.1-0.2-0.4-0.2-0.4-0.4v0v0c0,0,0.1-0.1,0.1-0.1c0-0.1-0.1-0.5,0-0.5h0
			c0,0,0-0.2-0.1-0.2c-0.2-0.3-0.3-0.6-0.3-1c0,0,0,0,0,0c-0.2-0.4-0.3-0.9-0.3-1.3l0,0c-0.1-0.3-0.2-0.5-0.2-0.8c0,0,0,0,0,0
			c-0.1-0.1-0.1-0.2,0-0.4c0-0.1,0-0.1,0-0.2c0,0,0-0.1,0-0.1c0-0.2,0-0.3,0-0.5c0-0.4,0-0.7-0.2-1.1h0c0-0.1-0.1-0.1-0.2-0.2
			c-0.3-0.1-0.6,0-0.8-0.1l0,0l0,0c-0.1,0.1-0.3,0.1-0.4,0.1c-0.1,0.2-0.5,0.2-0.5,0.2V34h0.1c-0.3,1-0.5,0.5-0.7,0.7
			c-0.1,0.1-0.4,0.5-0.4,0.5v0c0,0.3-0.5,0.1-0.5,0.3c0,0.1-0.5,0.2-0.5,0.3v0c0,0,0.2-0.1,0.1,0c0,0.1,0.1,0.2,0,0.2h0
			c-0.1,0-0.2,0.5-0.2,0.5v0c0,0.3,0,0.3-0.2,0.3c0,0.2-0.3,0.3-0.3,0.5c-0.1,0.4-0.5,0.8-0.5,1.2v0c0,0,0.1-0.4,0.2-0.4
			c0,0.4,0.1,0.8,0.1,0.8h0c0,1,0,0.5,0,0.5c0.1,0.4,0.2,1,0.2,1.4c0.1,0.1,0.1,0.4,0.1,0.5c0,0,0,0,0,0c0.1,0.3-0.2,0.6-0.2,0.9
			l-0.4,0v0v0l0.4,0.3c0.2,0.3,0.7,0.2,0.7,1.2c0,0,0,0,0,0c0.1,0,0.3,0.1,0.2,0.3c0.2,0.1,0.2,0.1,0.3,0.3c0.1,0.2,0.3,0.4,0.3,0.6
			c0.2,0.1,0,0.3,0,0.5c0.1,0.1,0,0.2,0,0.4v0c0,0.1,0.2,0.3,0.3,0.3c0.2,0.1,0.5,0.6,0.5,0.6h0c0.1,0,0,0.1,0.2,0.1
			c0.2,0.1,0.2-0.2,0.3-0.1l0,0c0.1,0.1,0.2-0.1,0.2-0.1h0l-0.3,0.1c0.1,0.7-0.1,0.6-0.1,0.7v0.1l0,0c0,0,0.5,0.3,0.6,0.5
			c0.2,0.1,0.5-0.4,0.5,0.6H31v-0.3c0,0.1,0,0.3,0,0.3h0.5c0.7,0,0.2,0.1,0.2,0.2c0.2,0.1,0.3,0.2,0.4,0.4c0.2,0.1,0.3,0.4,0.3,0.4
			h0c0.4,0,0.8,0.8,1.2,1.2c0.2,0,0.3,0.1,0.3,0.3c0.1,0,0.2,0.1,0.3,0.2c0.2,0.1-0.2,0.2-0.1,0.4c0.2,0.1-0.1,0.2-0.1,0.4v0
			c0,0.1,0.8,0.2,0.9,0.3c0.1,0,0.4,0.1,0.5,0.2c0.1,0.1,0.4,0.1,0.4,0.2c0.1,0,0.3,0.1,0.3,0.2c0.1,0.1,0.3,0.1,0.4,0.3
			c0.2,0,0.3,0,0.3,0.1c0.1,0.1,0.3,0.2,0.4,0.2h0c0.2,0,0.2,0.3,0.4,0.4c0.2,0.1,0.5,0.2,0.5,0.4v0c0,0.1,0.3,0.1,0.4,0.2
			c0.2,0,0.6,0.1,0.6,0.3v0l0,0c0,0,0,0.1,0,0.1c0.1,0,0.2,0.1,0.2,0.3c0.2,0,0.2-0.7,0.3,0.3h0c0.1,0,0,0.1,0.2,0.1
			c0.1,0.1,0.3,0,0.3,0.1v0c0,0,0.4-0.2,0.5-0.2h0c0,0,0.1,0.3,0.1,0.3c0.2,0,0.3-0.2,0.4-0.2c0.1,0,0.2-0.1,0.3-0.1h0
			c0,0-0.3,0.9-0.3,1v0c0,0,0.5-0.2,0.6-0.1c0.2,0.1,0.6,0.1,0.7,0.1h0c0.1,0,0.1,0.3,0.2,0.4c0.2,0,0.5,0.4,0.5,0.5v0l0,0
			c0,0.1,0.4,0.1,0.5,0.2c0.2,0.1,0.4,0.2,0.6,0.3c0.2,0.1,0.4,0.1,0.5,0.3c0.2,0,0.3,0.1,0.5,0.2c0.2,0.1,0.4,0.1,0.6,0.3
			c0.2,0,0.3,0.1,0.3,0.3c0,0.8-0.1,0.8-0.8,0.6c-0.2,0-0.4-0.1-0.5-0.2l0,0l0,0c-0.3-0.1-0.5-0.1-0.7-0.2l0,0c-0.1,0-0.1,0-0.2,0
			c-0.2-0.1-0.4-0.1-0.6-0.2l0,0c-0.1,0-0.1,0-0.2,0c-0.3-0.1-0.6-0.2-0.8-0.3l0,0l0,0c-0.2-0.1-0.4-0.1-0.6-0.2
			c-0.2-0.1-0.5-0.1-0.7-0.3h0c-0.1,0-0.1-0.1-0.2-0.2c-0.4-0.2-0.8-0.7-1.2-0.7c0,0,0,0,0,0c0,0,0,0.1-0.1,0.1
			c-0.4-0.2-1.1-0.3-1.4-0.4c-0.2-0.1,0-0.2-1-0.2v0c0,0-0.3-0.1-0.3-0.1c-0.2,0-0.7-0.1-0.7-0.2v0c0,0,0.6-0.4,0.6-0.4
			c-0.2,0,0.3-0.6,0.1-0.6h0c0,0,0,0.1-0.1,0.1C36.5,56,36.3,56,36.1,56H36v0.3c0-0.1,0-0.3-0.2-0.3h-0.1c0,0-0.5,0-0.5-0.1
			c-0.3-0.1-1.3-0.3-1.3-0.4v0c0,0,0.4-0.2,0.4-0.2c-0.1,0,0.3-0.3,0.3-0.3h0c-0.3,0-0.2,0-0.2,0c-0.1-0.1-0.4,0-0.4-0.2v0
			c0-0.2-0.6-0.4-0.8-0.5c-0.1,0-0.4-0.3-0.4-0.3h0c0,0-0.3,0-0.4-0.1c-0.1,0-0.2,0.1-0.3,0.1c0,0,0,0,0,0c0,0,0-0.3-0.1-0.3
			c-0.1-0.1,0-0.2,0-0.4c-0.1,0-0.1-0.3-0.1-0.4v0c-1-0.1-0.4-0.4-0.5-0.4c-0.2-0.1-0.6-0.6-0.7-0.6h0c-0.1,0-0.2-0.1-0.3-0.2
			c-0.1-0.1-0.7-0.1-0.7-0.2c-0.1,0,0.3-0.1-0.7-0.2v0v0c0-0.1,0.2-0.2,0.1-0.4c-0.1-0.1,0.3,0,0-0.2l0.2,0.1h0.1c0,0,0-0.2-0.1-0.3
			c-0.1-0.1-0.1-0.2-0.2-0.4c-0.1-0.1-0.2-0.4-0.2-0.4h0c-0.1-1-0.3-0.4-0.5-0.5c-0.1-0.1-0.3-0.2-0.3-0.3v0c0,0-0.3-0.1-0.4-0.1
			c-0.1-0.2,0.4-0.4-0.6-0.6v0v0c0-0.3,0.6-0.5,0.4-0.5h0.1h0c-0.1,0-0.1-0.1-0.1-0.1c-0.2,0-0.4,0.1-0.7,0.1h0
			c-0.3,0-0.7,0.4-0.9,0.8C25.8,49,25.8,49,25.6,49c0,0,0,0,0,0l0,0c0,0,0,0.2,0,0.2c0,0.1-0.1,0.3-0.1,0.5c0,0-0.2,0-0.2,0
			c0,0.2-0.3,0.4-0.3,0.6v0c0,0.1,0.1,0.1,0.1,0.1c0,0.2,0.1,0.5,0.1,0.5c0,0,0,0,0,0l0,0c0,0,0,0,0,0c0,0-0.1,0.5-0.1,0.7
			c0,0.2-0.1,0.6-0.1,0.9v0c0,0,0.2,0,0.2,0.1c0.1,0.2,0.3,0.5,0.3,0.7c0.2,0.1,0.2,0.2,0.3,0.4C25.9,53.9,26,54,26,54v0
			c0,0.3,0,0.3,0,0.4l0,0c0.1,0.1,0,0.2,0,0.3v0v0c0,0.1,0.4,0.3,0.5,0.4c0.2,0.1,0.5,0.2,0.5,0.3V56h0c0.3,0-0.1,0-0.1,0
			c0.2,0,0.1-0.1,0.1,0.1V56h0.5c0.2,0,0.3,0.5,0.5,0.6c0.2,0,0.2,0.1,0.3,0.3c0.2,0,0.4,0.2,0.5,0.4c0.1,0,0,0.1,0.1,0.2
			c0.1,0.1,0.1,0.1,0.1,0.3v0c0,0.1,0.5,0.5,0.6,0.6c0.2,0,0.6-0.4,0.7,0.6h0c0,0,0.1-0.3,0.1-0.2c0.1,0,0.3-0.2,0.3,0
			c0.2,0,0.4,0.1,0.6,0.2c0.2,0.1,0,0.1,0.2,0.3c0.3,0.1,0.6,0.3,0.6,0.4v0l0,0c0,0,0.7,0.3,0.8,0.5c0.6,0.2,1.6-0.1,2.2,0.9h0h0
			c0,0-0.4-0.3-0.4-0.3c0.3-0.1,0.5-0.2,0.5-0.2V61h0.8c0.1,0,0.2-0.4,0.2-0.3v0v0c0,0,0.5,0,0.7,0.1c0.2,0,0.5,0,0.6,0.2
			c0.3,0,0.5,0,0.8,0.1c0.2,0,0.5,0,0.7,0.1c0,0,0,0,0,0c0.3,0,0.5-0.1,0.8-0.1c0.3,0,0.6-0.1,0.9-0.1H40v0.2c0,0,0.6,0.1,0.8,0.1
			l0,0c0.4,0,1,0.1,1.4,0.2c0,0,0.2,0,0.2,0c0.4,0,0.7,0,1.1,0c0.7,0,1,0,1.7,0c0.2,0-0.1,0-0.1,0.3v0c0,0,0.4,0,0.4,0
			c0,0,0.2,0.1,0.2,0.1c0.1,1,0.2,1-0.9,1.1c0,0,0,0,0,0c-0.2,0.1-0.4,0.1-0.6,0c-0.2,0-0.4,0-0.6,0c-0.2,0.1-0.5,0-0.7,0.1
			c-1.5,0.1-3,0.1-4.5,0c-0.4,0-0.7,0-1.1-0.1c-0.2,0-0.4,0-0.5-0.1c0,0,0,0,0,0c-0.1,0-0.2,0-0.2,0c-0.3,0-0.5,0-0.8-0.1h0h0
			c-0.1,0-0.2,0-0.3,0l0,0l0,0c-0.1,0-0.3-0.1-0.4-0.1l0,0c-0.2,0-0.4,0-0.5-0.1c-0.2,0-0.3,0-0.5-0.1c-0.3-0.1-0.6-0.3-0.9-0.3
			c0,0,0,0,0,0c-0.1,0-0.3-0.1-0.4-0.1c-0.2,0-0.7-0.2-0.7-0.3v0v0c0-0.1-0.1,0.1-0.2,0.1h0c-0.1,0-0.4-0.2-0.5-0.3
			c-0.4,0-0.3-0.4-1.3-0.6v0v0c0-0.1-0.2,0.1-0.4,0C29.4,61,29.4,61,29.2,61H29v-0.4c0-0.3-0.1-0.2-0.1-0.3c-0.1,0-0.1-0.3-0.2-0.3
			h-0.1c-0.1,0-0.6,0-0.6-0.1v0c0-0.1,0.2,0.1,0.1-0.9c0,0,0,0,0,0c0,0-0.1,0.1-0.2,0.1C27.8,59,27.7,59,27.7,59h0
			c0,0-0.1,0.1-0.1,0c-0.1-0.1-0.2,0-0.3-0.2c-0.1,0-0.2,0-0.3,0c-0.1,0.2-0.1,0.3-0.2,0.5c0,0,0,0,0,0c-0.1,0.2-0.3,0.5-0.4,0.7
			c0,0-0.2,0-0.2,0c0,0.4,0,0.9,0,1.3l0.2-0.2c0.1,0.3,0.4,0.7,0.4,0.7h0c0.1,0-0.7,0.5-0.7,0.6v0c1,0,0.5,0.2,0.6,0.4
			c0.1,0.1,0.3,0.3,0.3,0.4c0.1,0.1,0.2,0.2,0.2,0.3l0,0.1c0.7,0.6,1,1.3,1.6,1.3h0c0.1,0,0.3,0.2,0.4,0.3c0.2,0,0.3,0.1,0.4,0.3
			c0.3,0.1,0.5,0.2,0.7,0.3c0.3,0,0.8,0.2,0.8,0.2V66h0.1c0,0-0.1,0.3-0.1,0.3v0c1,0,0.7,0.1,1,0.2c0.2,0,0.6,0.1,0.8,0.1
			c0.3,0,0.7,0,1,0.1c0,0,0.1,0,0.1,0c0.3,0,0.6-0.4,0.9-0.3l0-0.4H34v0.7c1,0,1.4-0.4,1.9-0.3c0.3,0,0.9-0.4,1.2-0.4h0l0,0.4l0,0.2
			c0.5-0.1,0.9-0.1,1.5-0.1c0.1-0.1,0.4,0,0.4,0v0c0-0.1,0.8-0.2,1.1-0.2c0.1-0.1,0.3-0.1,0.4-0.1c0,0,0,0,0,0
			c0.5-0.2,1.1-0.3,1.6-0.4c0.2-0.1,0.3-0.1,0.5-0.1c0.4-0.2,0.8-0.3,1.2-0.4c0.2-0.1,0.3-0.2,0.5-0.2c0.2-0.2,0.7-0.2,0.7-0.3v0
			c0-0.1,0.5-0.2,0.7-0.2l0,0c0.1,0,0.2,0,0.3,0c0.1-0.3,0.3-0.3,0.4,0c0,0.1,0.1,0.2,0.1,0.3l0,0c0.1,0.2,0.3,0.4,0.3,0.7
			c0.2,0.2,0.2,0.2-0.1,0.4c-0.1,0.1-0.3,0.2-0.4,0.2c-0.1,0.1-0.3,0.2-0.5,0.2c-0.1,0.2-0.4,0.2-0.6,0.3h0
			c-0.2,0.1-0.5,0.2-0.7,0.3c-0.1,0.2-0.6,0.2-0.6,0.3v0c0,0,0-0.2,0-0.2c-0.1,0.1-0.1-0.1-0.3-0.1c0,0,0,0,0,0
			c-0.1,0-0.1,0.3-0.2,0.3c-0.2,0.1-0.6,0.5-0.6,0.5v0v0c0,0-0.1,0.2-0.4,0.2h0c0,0-0.2,0-0.3,0.1c-0.1,0-0.2,0-0.3,0.1l0,0l0,0
			c0,0,0-0.2,0-0.2c-0.4,0.1-0.7,0-1.1,0h0c0,0-0.4,0.2-0.4,0.2c-0.4,0.2-0.5,0.4-1.5,0.4V68h0.6c-0.2,0-0.4,0.4-0.6,0.4
			c-1.7,0.2-4,0.6-5,0.3V68h0.2c-0.3,0-0.5,0.3-0.6,0.3c-0.4-0.1-0.8,0-1.1-0.2c-0.3,0-0.6-0.1-0.9-0.1c0,0,0,0,0,0
			c-0.1,0-0.3,0-0.4,0.2c-0.1,0.2-0.1,0.4-0.1,0.7c0,0,0-0.1,0-0.1c0,0.1,0.1,0.3,0.1,0.3c0,0,0,0,0,0c0.1,0,0.8,0.8,0.8,1v0
			c0,0.1-0.2,0.1-0.2,0.2c0.2,0.1,0.1,0.2,0.1,0.3c0.2,0,0.1,0.2,0.1,0.3v0c0,0.2,0.4,0.4,0.6,0.6c0.2,0,0.3,0.2,0.4,0.3l0,0
			c0.1,0.1,0.2,0.3,0.3,0.3h0c0.2,0,0.4,0,0.6,0h0H34c0.1,0,0,0.1,0,0.2v0c0,0,0,0,0,0.1v0c0,0,0.3,0.3,0.4,0.3
			c0.1,0,0.4,0.4,0.5,0.4H34v-0.6c0,0.1,0.9,0.6,1,0.6h-1v-0.5c0-0.1,1.1,0.2,1.3,0.3c0,0,0.6,0.2,0.6,0.2c0.4,0,0.7,0,1.1,0
			c0,0,0-0.2,0.1-0.2c0.3-0.1,0.5-0.2,0.8-0.2l0,0c0.1,0,0.1-0.1,0.1-0.1v0c0,0,0,0,0-0.1v0l0.2,0.2c0,0,0.2,0.5,0.3,0.5h0
			c0.2-1,0.5-0.5,0.8-0.6c0.2-0.1,0.1-0.3,0.3-0.4c0.2-0.1,0.3-0.4,0.3-0.4v0c1-0.3,1-0.4,1.4-0.6c0.1-0.2,0.6-0.2,0.6-0.3v0
			c0-0.1,0.4-0.2,0.6-0.2c0.1-0.1,0.4-0.2,0.5-0.3c0,0,0.1,0,0.1,0c0.1-0.1,0.3-0.3,0.5-0.3h0c0.1,0,0.2-0.1,0.4-0.1l0,0
			c0,0,0,0.2,0.1,0.2c0.1-0.2,0.2,0,0.4,0H44v-0.4c0,0,0.6-0.6,0.6-0.6H44v0.5c0-0.2,0.5-0.2,0.6-0.3c0.1-0.1,0.4-0.1,0.5-0.2
			c0.1-0.1,0.3-0.1,0.3-0.2l0.1-0.2c0-0.1,0.2-0.7,0.3-0.7h-0.1h0c0.1,0,0.1,0.3,0.2,0.3c0.2-0.3,0.4-0.3,0.7-0.4l0,0.1h0
			c0.1,0,0.1-0.1,0.2-0.2c0-0.2-0.8-0.2,0.2-0.3v0c0-0.1,0.6-0.5,0.7-0.5H47v0.3c0-0.2,0.4-0.2,0.5-0.3c0.2-0.2,0.5,0,0.5,0.1v0
			c0,0,0.2,0.3,0.4,0.4c0.2,0,0.3,0.1,0.4,0.3c0.1,0,0.2,0.1,0.2,0.2c0,0.1-0.1-0.1-0.2-0.1c0,0.1-0.2,0.1-0.3,0.1h0
			c-0.1,0-0.1-0.3-0.1-0.2c-0.1,0.2-0.3,0.2-0.6,0.2h0c-0.1,1-0.7,0.7-0.8,0.8c-0.1,0.1,0,0.7-1,0.8v0c0,0.1,0.4,0.1,0.3,0.3
			c-0.1,0.1,0.1,0.2,0,0.2c-0.1,0.2-0.3,0.3-0.3,0.4v0c0,0.1-0.1,0.2-0.1,0.2c-0.1,0.1-0.1,0.3-0.2,0.3h0c-0.2,0-0.4,0.2-0.6,0.4
			c-0.1,0.1-0.1,0.1-0.3,0.1c-0.1,0.2-0.2,0.2-0.4,0.2c-0.1,0.2-0.2,0.2-0.4,0.2c-0.1,0.2-0.4,0.3-0.6,0.3c-0.1,0.2-0.3,0.2-0.5,0.2
			c-0.2,0.2-0.3,0.3-0.6,0.2c-0.2,0.2-0.5,0.3-0.7,0.2l0,0l0,0c0,0-0.1,0.1-0.1,0.1c-0.4,0.2-0.7,0.3-1.1,0.3l0,0c0,0,0,0-0.1,0
			c-0.2,0.1-0.4,0.2-0.7,0.1c-0.1,0.1-0.2,0.1-0.3,0.1l0,0c0,0,0,0,0,0c-0.4,0.1-0.7,0.2-1.1,0.2c0,0-0.1,0-0.1,0
			c-0.2,0.1-0.4,0.1-0.6,0.2l0,0c0,0,0,0.1,0,0.1c-0.1,0.2-0.1,0.5,0,0.7c0.1,0.1-0.2,0.1-0.2,0.3c0.2,0-0.2,0.1-0.2,0.3v0
			c0,0,0.9-0.6,1-0.6h-0.1c0.2,0,0.1,1,0.1,1.1v-0.1c1,0.1,0.8,0.2,1.1,0.3c0,0,0.2-0.2,0.2-0.2c0.9,0.2,2-0.2,2.9-0.2h0h0h0
			c0,0,0,0.2,0,0.2c0.3-0.2,0.8-0.2,1.2-0.3c0.1-0.2-0.2-0.2,0.8-0.2v0c0,0,0-0.2,0.2-0.5C44.3,75.1,44,75,44,75v0v0c0,0,0,0,0-0.1
			v0c0-0.2,1,0,1.1,0h0h0c0.1,0,0.2-1,0.2-1h0h0c0.1,0-0.3,0-0.3-0.7l0,0v0c0,0,0.4,0,0.5,0c0.1-0.1,0.5-0.1,0.5-0.1v0c0,0,0,0,0,0
			v0c0-0.1-0.2-0.2-0.1-0.3c0.1-0.1,0.1-0.3,0.1-0.3v0l0.5,0.2L47,73h0c-0.1,0,0.2-0.5,0.2-0.6c0.1-0.1,0.2-0.3,0.2-0.4
			c0,0,0-0.1,0-0.1c0.1-0.1,0.1-0.3,0.3-0.4c0-0.2-0.8-0.3,0.2-0.4v0c0-0.1,0-0.3,0-0.3v0c0-0.1,0.3-0.3,0.4-0.4
			c0-0.1,0.3-0.5,0.5-0.5h0c0.2,0,0.4-0.4,0.6-0.7c0-0.2,0.1-0.3,0.3-0.3h0c0,0,0-0.1,0-0.2c0-0.1,0-0.2,0-0.2c0.1,0,0.2,0,0.2,0.2
			v0c0,0.1,0.3,0,0.5,0c0.3,0,0.6,0.2,0.3,0.2h-0.1c0,0-0.2,0.3-0.1,0.4c0,0.2-0.1,0.6-0.3,0.8c0,0.2-0.1,0.8-0.3,0.8h0
			c0,0,0,0-0.1,0c0,0.1-0.1,0.2-0.2,0.2c0,0.2-0.2,0.3-0.4,0.4c0,0.2-0.3,0.2-0.3,0.3v0c-1,0.1,0,0.4,0,0.5c-0.1,0.1,0,0.6-0.2,0.6
			h0c-0.1,0-0.8-0.2-0.8-0.2v0v0c0,0,0.3,0.2,0.2,0.3c0,0,0,0,0,0c0,0.1-0.2,0.2-0.2,0.2v0c0,0.1,0.1,0.2-0.1,0.2
			c0,0.1,0,0.2-0.1,0.2c0,0.1,0,0.3-0.2,0.3h0h0c-0.3,0-0.8,0.6-1.1,0.8C46.5,74.9,46,75,46,75v0c0,0.1-0.1,0.3-0.3,0.4
			c-0.1,0.1-0.1,0.2-0.3,0.2c-0.1,0.2-0.6,0.2-0.7,0.2c-0.1,0.2-0.7,0.2-0.7,0.3v0c0,0.1,0.4-0.2,0.2-0.2c0,0,0,0,0,0
			c-0.6,0-0.6,0.5-0.3,1.1c0,0,0,0.2,0.1,0.2c0.2,0-0.2,0.2-0.1,0.4c0.2,0.1,0.1,0.1,0.1,0.3v0c0,0,0.5,0,0.6-0.1c0.3,0,1.4,0,1.4,0
			v0l0.2,0l0.1,0c0.3-0.1,0.7,0.1,1,0c0.2-0.2,0.4,0,0.7,0h0c0-1,0.2-0.5,0.3-0.5c0.1-0.2,0.2-0.4,0.3-0.4c0,0,0-0.4,0-0.4
			c0-0.1,0.1-0.6,0.2-0.6H48v0.5c0-0.1,1.1-0.5,1.2-0.5h0l0,0c0,0-0.3-0.1-0.2-0.2c0.1-0.1-0.1-0.2-0.1-0.3v0v0
			c0-0.1,0.6-0.5,0.9-0.5H50c0,0,0.1,0.2,0.1,0.1c0-0.2,0-0.1,0.2-0.1h0c0,0,0.1-0.3,0.1-0.3c0-0.2,0.1-0.3,0.2-0.4
			c0-0.2,0.1-0.3,0.2-0.3h0c0-1,0.2-0.5,0.2-0.6v0c0-0.2,0.1-0.5,0.2-0.7c0.1-0.2,0.1-0.7,0.3-0.7H51v0.2c0,0,0.5-0.2,0.5-0.2h0
			c-0.1,0-0.5-0.6-0.5-0.6v0c0,0,0.5-0.1,0.5-0.2c0-0.2,0.5-0.2,0.5-0.3v0l0,0.3c0.1-0.1,0-0.1,0.2-0.1h0c0,0,0-0.3,0-0.4
			c-0.1-0.2,0-0.5,0.1-0.7c0.1-0.1,0.3,0.1,0.4,0.1c0,0,0,0,0,0c0,0,0,0,0,0c0,0,0.1,0,0.1,0c0.1-0.1,0.2-0.1,0.3,0
			c0.1,0.1-0.1,0.2-0.1,0.3v0c0,0.1,0.1,0.3,0,0.4c0,0.4-0.2,0.9-0.2,1.2l0,0.1h0c-0.3,0-0.1,0.2-0.1,0.3c0,0.2-0.1,0.7-0.2,0.7H52
			v-0.2c0,0,0.3,0.5,0.2,0.5c0,0.2,0.1,0.1,0,0.8l0.1,0h0c0,0-0.3-0.1-0.3,0v0v0c0,0,0.1,0.1,0,0.2c0,0.3-0.1,0.4-0.2,0.6
			c0,0.2,0,0.3-0.2,0.3h0c0,0-0.2,0.4-0.3,0.6c0,0.2-0.3,0.4-0.3,0.6c0,0,0,0.1,0,0.1v0c0,0,0.2,0,0.2,0c-0.1,0.1-0.1,0.3-0.1,0.3
			l0,0c0,0.2-0.7-0.5-0.8,0.5h0c0,0,0,0.5,0.1,0.7c0.5,0.2,1,0.1,1.5,0.1l0,0c0.2,0,0.3,0.1,0.5,0.1l0,0.2h0H52v-0.3
			c1-0.1,0.6-0.3,0.7-0.4c0.1-0.1,0.4-0.3,0.6-0.3h-0.1h0c0.3,0,0.3-0.5,0.5-0.7c-0.1-0.1,0-0.3,0.1-0.3h0c0,0,0.1,0.3,0.1,0.3v0
			c0-0.3,0.1-0.5,0.2-0.7c0,0,0-0.3,0-0.3c0.1-0.3,0.3-0.3,0.3-1.3h0c0,0,0,0.2,0,0.2c0-0.1,0-0.1,0-0.2c0-0.1,0-0.2,0-0.4
			c0,0,0,0,0-0.1c0-0.4,0-0.8,0-1.2c0-0.1-0.2-0.2,0-0.2c0.9,0.1,1.4,0,2.4-0.1V72h0.5l0,0c0.4-0.2,0.9-0.2,1.3-0.2c0,0,0,0,0,0
			c0.3-0.1,0.6-0.2,0.9-0.3l0,0c0.3-0.1,0.5-0.2,0.8-0.3c0.2-0.2,0.4-0.2,0.6-0.2c0.1-0.2,0.3-0.2,0.4-0.2c0.1-0.1,0.2-0.2,0.3-0.2
			c0.1-0.1,0.2-0.2,0.3-0.2c0.1-0.2,0.3-0.3,0.5-0.3c0-0.1,0.1-0.2,0.3-0.2l0,0c0,0,0,0,0.1-0.1c0.1-0.2,0.3-0.3,0.5-0.4
			c0.1-0.2,0.3-0.4,0.6-0.5l0,0c0.2-0.3,0.5-0.5,0.8-0.8l0,0c0-0.2,0.1-0.3,0.2-0.3c0.1-0.1,0.1-0.2,0.2-0.2c0-0.1,0.1-0.2,0.2-0.3
			c0-0.2,0.1-0.3,0.3-0.3l0,0c0,0,0.1-0.1,0.1-0.1c0-0.2,0-0.4,0.3-0.4v0c0-0.2,0.2-0.3,0.3-0.4c0-0.1,0-0.2,0.2-0.2h-0.1
			c0.1,0-0.5-0.5-0.5-0.7v0c0-0.2,0.6-0.4,0.7-0.5c0,0,0.2,0,0.2,0c0,0,0.1-0.1,0.1-0.1c0.1-0.2,0.2,0.4,0.4-0.6H67v0.2
			c0,0,0.2,0.1,0.3,0c0-0.1,0.2-0.2,0.3-0.2h0c0.1-1,0.1-0.4,0.2-0.5l0,0c-0.1-0.1,0-0.2,0-0.3c0.1-0.2,0.2-0.1,0.4-0.2
			c0.2,0,0.4-0.1,0.6-0.1c0.1-0.1,0.3-0.2,0.3-0.2v0.1c0-0.2,0.4-0.7,0.3-0.7H69v0c0-0.1,0.1-0.2,0.1-0.2c0-0.1,0.1-0.2,0.1-0.2
			c-0.1-0.1-0.1-0.3-0.2-0.4l0,0v0c0-0.1,0,0.1-0.1,0C68.8,61,68.8,61,68.7,61H68v-0.5c0-0.4-0.1-0.7-0.3-1.1l0,0
			C67.5,59.2,68,59,68,58.8v0c0-0.2,0-0.3,0-0.3V59c0,0,0.2,0,0.2,0c0,0,0.1-0.3,0.1-0.3c0-0.2,0.2-0.3,0.4-0.3
			c0.1-0.1,0.3-0.3,0.4-0.3h0c0.2,0-0.1-0.3-0.1-0.4v-0.2c0-0.1,0.4-0.4,0.5-1.4h0c0,0,0,0-0.1,0h0.1c-0.2,0-0.4,0.2-1.4,0.1v0
			c0-0.1,0.5,0,0.4,0h0c-0.1,0-0.4-0.3-0.4-0.4v0c0-0.1-0.2,0.4-0.3,0.4h0c-0.1,0-0.1-0.4-0.2-0.5c-0.1-0.1-0.2-0.3-0.2-0.4
			c0,0-0.6-0.1-0.6-0.1c-0.1-0.1,0.2-0.3-0.8-0.4v0c0,0,0.5-0.1,0.5-0.1c-0.1-0.2,0.1-0.1,0.1-0.3c0-0.2,0.2-0.2,0.2-0.2h0h0
			c0-1,0-1,0-1.4l0,0c0-0.1,0-0.4,0.1-0.5c0-0.2,0.1-0.5,0.1-0.6v0c0-0.1,0-0.3,0-0.4V51h0.1c0.1,0,0-0.3,0.4,0
			c0.2,0.1,0.4,0,0.6,0.1l0,0c0.5,0.2,1-0.1,1.6-0.1H69v0.5c0,0,0.3,0,0.3-0.1c0.1-0.1,0.7-0.3,0.7-0.4v0c0,0-0.1-0.1-0.1-0.1
			c0-0.2,0.1-0.3,0.1-0.4v0c0,0,0.4-0.1,0.4-0.2C70.4,50.2,70.9,50,71,50h0c0.1,0-0.1-0.2,0-0.3c-0.1-0.3,0-0.6,0-0.8V49
			c0,0,0.3,0,0.3,0c0.1,0,0.1-0.1,0.1-0.1c-0.1-0.1,0-0.4-0.3-0.3c-0.2,0.1-0.5,0-0.7,0c-0.4,0-0.4,0.1-1.4-0.2v0c0,0,0.1,0,0,0
			c-0.2,0-0.5-0.1-0.6-0.2c-0.1,0-0.4-0.1-0.4-0.2v0l0,0c0,0,0.1-0.1,0.1-0.2C67.9,47.6,67.9,47,68,47h0c0,0,0-0.1,0-0.1
			c-0.2-0.3-0.1,0.1-0.1-0.9H67v-0.1c0,0,0.4-0.2,0.4-0.3c0.1-0.1,0.6-0.2,0.6-0.3v0c0-0.3,0.4-0.6,0.6-0.8c0-0.2,0.2-0.4,0.4-0.4
			c0-0.2,0.2-0.3,0.4-0.3c0.2-0.1,0.6-0.2,0.6-0.2V44h0c0.1,0-0.2-0.2-0.1-0.2c0.2-0.1,0.1-0.5,0.1-0.2v0c0,0,0.3,0,0.4,0
			c0.2,0,0.6,0,0.6,0.2v0c0,0.1,0.8,0.1,0.9,0.2c0.3,0.1,1.1,0.4,1.1,0.6v0c0,0-0.3,0.1-0.2,0.1c0.1,0.1,0,0.2,0.1,0.4
			c0.3,0.2,0.3-0.4,0.5-0.5c0.1-0.1,0.1-0.6,0.3-0.6h0c0,0,0,0.1,0,0.1c-0.1-0.2,0-0.1,0.2-0.1h0c0.1,0-0.5,0-0.4-0.1
			c-0.1-0.2-0.4-0.1-0.4-0.2v0c1,0,0.6-0.1,0.6-0.2c0-0.2,0.6,0.5,0.7-0.5H75c0,0,0,0.1,0,0.1c0,0-0.2-0.1-0.2-0.1
			C74.8,42.7,74.7,42.4,74.7,42.2z M61,35.2c0,0.1-0.4,0.1-0.5,0.1c-0.1,0-0.5,0.1-0.5,0.1v0v0c0,0,0.2,0,0.1,0
			c-0.1,0.1-0.2,0.1-0.3,0.2c-0.1,0.1-0.2,0.5-0.4,0.5C59.2,36.3,59.1,36,59,37h0c-0.1,0-0.5,0.2-0.6,0.4c0,0-0.4-0.2-0.4-0.2v0
			c0,0.2,0.7-0.2,0.7-0.2c0,0,0,0,0,0h0.1c0,0-0.8,0.6-0.8,0.6c0,0.1,0,0.2,0,0.3c0,0,0.1-0.2,0.1-0.3C57.8,37.5,58,37,57.9,37
			c0,0,0,0,0,0c-0.1,0-0.2-0.2-0.2-0.4c-0.1-0.1-0.4-0.3-0.4-0.4c0-0.2-0.2-0.3-0.2-0.6V35h0.4c0,0-0.4,0-0.4,0v0.3
			c0-0.2,0.4-0.4,0.6-0.5c0.1-0.2,0.3-0.5,0.6-0.5c0.1,0,0.4-0.3,0.4-0.3h0h0c0.3,0,0.3,0,0.6,0.2c0,0-0.2,0.3-0.2,0.3v0
			c1-0.3,0.7,0,0.9,0.2c0.2,0,0.1,0.1,0.1,0.3c0.1,0.1,0,0.1,0,0.2V35h0.8C60.9,35,61,35.1,61,35.2z M69.2,39
			c-0.1,0-0.1,0.1-0.1,0.1l0,0c0,0.2-0.1,0.3-0.3,0.4c-0.1,0.1-0.2,0.3-0.3,0.4l0,0c-0.2,0.2-0.4,0.1-0.6-0.1l0,0
			c0-0.1-0.1-0.1-0.1-0.2c0-0.1-0.3-0.2-0.2-0.4c0,0-0.1-0.1-0.1-0.1l0,0c-0.1-0.1-0.4-0.3,0-0.4c0.1-0.2,0.3-0.2,0.5-0.2
			c0.1-0.1,0.3-0.1,0.4-0.1c0.1-0.1,0.3-0.1,0.5-0.1c0.2,0,0.4-0.1,0.4,0.1C69.5,38.7,69.4,38.9,69.2,39z"/>
		<polygon fill="#D9251D" points="28.8,57.3 28.8,57.3 28.8,57.3 		"/>
		<polygon fill="#D9251D" points="37.4,60.9 37.4,60.9 37.4,60.9 		"/>
	</g>
</g>
</svg>
