<?xml version="1.0" encoding="utf-8"?>
<!-- Generator: Adobe Illustrator 17.1.0, SVG Export Plug-In . SVG Version: 6.00 Build 0)  -->
<!DOCTYPE svg PUBLIC "-//W3C//DTD SVG 1.1//EN" "http://www.w3.org/Graphics/SVG/1.1/DTD/svg11.dtd">
<svg version="1.1" id="Layer_1" xmlns="http://www.w3.org/2000/svg" xmlns:xlink="http://www.w3.org/1999/xlink" x="0px" y="0px"
	 width="100px" height="100px" viewBox="0 0 100 100" enable-background="new 0 0 100 100" xml:space="preserve">
<g>
	<circle fill="#FFFFFF" stroke="#CCCCCC" stroke-miterlimit="10" cx="50" cy="50" r="47.4"/>
	<g>
		<path fill="#132160" d="M25,38.3c0.9,0,1.7,0,2.6,0c1.2,0,2.3,0,3.5,0c1.8,0,3.7,0,5.5,0c1.2,0,2.5,0,3.7,0.1
			c1.5,0.1,2.9,0.3,4.4,0.5c0.7,0.1,1.4,0.2,2.1,0.4c0.7,0.2,1.4,0.4,2.1,0.6c2.2,0.7,4.4,1.7,6.3,3c2.1,1.5,4.2,3,6.3,4.6
			c2.1,1.5,4.1,3,6.2,4.5c0,0,0.1,0.1,0.1,0.1c-0.8,1-2.1,1.4-3.1,1c-0.5-0.2-1-0.6-1.4-0.9c-2.5-1.8-5-3.7-7.5-5.5
			c-1.4-1-2.7-2-4.1-3c-2-1.4-4.1-2.5-6.4-3.4c-1.6-0.6-3.3-0.9-5-1.1c-1.9-0.2-3.8-0.3-5.7-0.3c-3,0-5.9,0-8.9,0
			c-0.2,0-0.3-0.1-0.3-0.2C25.1,38.6,25.1,38.5,25,38.3z"/>
		<path fill="#003497" d="M64.8,54.2c-0.8,0.7-1.6,1.4-2.8,1.1c-0.3-0.1-0.5-0.2-0.7-0.3c-3.6-2.6-7.3-5.3-10.9-7.9
			c-1.8-1.3-3.6-2.3-5.7-3c-1.8-0.6-3.7-0.9-5.6-1.2c-2.4-0.3-4.9-0.1-7.3-0.2c-1.5,0-3,0-4.5,0c-0.5,0-0.5,0-0.7-0.5
			c0.1,0,0.2,0,0.3,0c3.7,0,7.3,0,11,0c1.5,0,3,0.2,4.5,0.3c2.1,0.2,4.1,0.6,6.1,1.3c2.6,0.9,5,2.2,7.2,3.9c1.8,1.3,3.6,2.7,5.5,4
			c1.2,0.8,2.3,1.7,3.5,2.5C64.7,54.1,64.7,54.1,64.8,54.2z"/>
		<path fill="#094871" d="M28.1,45.7c0.5,0,1.1,0,1.6,0c2.8,0,5.7,0,8.5,0.1c2.6,0.1,5.3,0.3,7.8,1c2.4,0.6,4.7,1.6,6.8,3
			c1.9,1.3,3.7,2.7,5.6,4c1.1,0.8,2.2,1.6,3.3,2.4c0.1,0.1,0.1,0.1,0.3,0.2c-0.8,0.5-1.4,1.3-2.5,1.2c-0.4,0-0.8-0.2-1.1-0.4
			c-2.4-1.7-4.8-3.5-7.2-5.2c-1.2-0.8-2.3-1.7-3.5-2.5c-2.2-1.4-4.6-2.2-7.1-2.6c-2.4-0.4-4.8-0.4-7.1-0.4c-1.6,0-3.2,0-4.9,0
			C28.1,46.3,28.3,45.9,28.1,45.7C28.1,45.8,28.1,45.7,28.1,45.7z"/>
		<path fill="#176788" d="M59.1,58.4c-0.6,0.4-1.1,0.9-1.8,1.1c-0.6,0.1-1.1,0.1-1.6-0.3c-2.6-1.9-5.2-3.8-7.8-5.6
			c-2.2-1.5-4.6-2.7-7.3-3.1c-1.8-0.3-3.6-0.4-5.5-0.4c-1.7,0-3.4,0-5,0c-0.4,0-0.3-0.4-0.5-0.6c0.4,0,0.7,0,1,0c2.3,0,4.6,0,6.9,0
			c1.3,0,2.6,0.1,3.9,0.2c2.1,0.2,4.2,0.7,6.2,1.4c2.1,0.7,3.9,1.8,5.7,3.1c1.9,1.4,3.7,2.7,5.6,4C58.9,58.3,59,58.3,59.1,58.4z"/>
		<path fill="#006F82" d="M56.2,60.6c-0.6,0.4-1.1,0.9-1.8,1.1c-0.6,0.1-1.2,0-1.7-0.3c-2-1.5-4-2.9-6.1-4.3c-2.1-1.5-4.5-2.4-7-2.8
			c-2-0.4-4-0.4-6-0.4c-0.6,0-1.2,0-1.8,0c-0.5,0-0.5,0-0.6-0.5c0.3,0,0.5,0,0.8,0c2,0,3.9,0,5.9,0c1.4,0.1,2.8,0.2,4.3,0.4
			c1.1,0.2,2.3,0.4,3.4,0.7c1.7,0.4,3.3,1.2,4.8,2.1c1.8,1,3.3,2.3,5,3.4C55.6,60.1,55.9,60.3,56.2,60.6z"/>
		<path fill="#0E205E" d="M61.3,45.6c0.1,0.1,0.3,0.3,0.4,0.4c0.5,0.5,1.1,0.7,1.7,0.7c1.7,0,3.4,0,5.1,0c0.5,0,0.9,0,1.4,0
			c0.3,0,0.5,0.1,0.6,0.4c0.1,0.2,0.3,0.5,0.4,0.8c-1-0.1-1.9-0.1-2.8-0.2c0,0,0,0.1,0,0.1c0.1,0.1,0.3,0.2,0.4,0.4
			c0.3,0.4,0.7,0.5,1.2,0.2c0.3-0.1,0.6-0.2,0.8-0.3c0.4,0,0.8,0,1.1,0c0.7,0.1,1.3,0.2,1.9,0.3c0.7,0.1,1,0.5,1.2,1.1
			c0.1,0.5,0.1,0.9,0.2,1.4c-0.1,0-0.1,0-0.1,0c-0.3-0.7-0.9-0.8-1.6-0.8c-1.2,0-2.4,0.1-3.5,0.6c-0.3,0.1-0.5,0.2-0.8,0.4
			c-0.5,0.3-1,0.2-1.5-0.1c-1.8-1.3-3.6-2.6-5.3-3.9C61.7,46.8,61.3,46.3,61.3,45.6z"/>
	</g>
</g>
</svg>
