<?xml version="1.0" encoding="utf-8"?>
<!-- Generator: Adobe Illustrator 17.1.0, SVG Export Plug-In . SVG Version: 6.00 Build 0)  -->
<!DOCTYPE svg PUBLIC "-//W3C//DTD SVG 1.1//EN" "http://www.w3.org/Graphics/SVG/1.1/DTD/svg11.dtd">
<svg version="1.1" id="Layer_1" xmlns="http://www.w3.org/2000/svg" xmlns:xlink="http://www.w3.org/1999/xlink" x="0px" y="0px"
	 width="80px" height="37.1px" viewBox="0 0 80 37.1" enable-background="new 0 0 80 37.1" xml:space="preserve">
<path fill="#333333" d="M0,10.7C26.7,7.3,53.2,3.8,80,0.3C68.9,12.8,57.9,25.1,46.9,37.4c-5.4-3.4-10.7-6.7-16.1-10.1
	C45.3,19.4,59.7,11.5,74,3.6c-0.1-0.1-0.1-0.2-0.2-0.3c-16,7.9-32,15.8-48.1,23.7c1.6,1,3.1,1.9,4.7,3c-3.8,2.3-7.5,4.5-11.3,6.8
	c-0.1-1.8-0.3-3.4-0.3-5.1c-0.2-2.8-0.3-5.6-0.4-8.4c-0.1-0.8,0.2-1.1,0.9-1.4c15.3-5.4,30.5-10.9,45.8-16.3
	c3.6-1.3,7.2-2.6,10.7-4.1c-1.3,0.4-2.7,0.7-4,1.1C52.6,8.2,33.3,13.8,14,19.4c-0.6,0.2-1.1,0.3-1.7-0.1c-3.9-2.7-7.9-5.4-11.8-8.1
	C0.4,11.1,0.3,11,0,10.7z"/>
</svg>
