<?xml version="1.0" encoding="utf-8"?>
<!-- Generator: Adobe Illustrator 17.1.0, SVG Export Plug-In . SVG Version: 6.00 Build 0)  -->
<!DOCTYPE svg PUBLIC "-//W3C//DTD SVG 1.1//EN" "http://www.w3.org/Graphics/SVG/1.1/DTD/svg11.dtd">
<svg version="1.1" id="Layer_1" xmlns="http://www.w3.org/2000/svg" xmlns:xlink="http://www.w3.org/1999/xlink" x="0px" y="0px"
	 width="360px" height="113.6px" viewBox="0 0 360 113.6" enable-background="new 0 0 360 113.6" xml:space="preserve">
<g>
	<path fill="#FFFFFF" d="M0,32.3c0,4.6,0,9.1,0,13.6c2.2,0,4.4,0,6.7,0c0,0.3,0,0.6,0,0.9c0,10.8,0,21.6,0,32.5c0,2,0.2,4,0.6,5.9
		c0.7,4.2,3.1,7.1,7.4,7.8c2.4,0.4,4.8,0.6,7.3,0.6c4.2,0,8.4-0.2,12.6-0.2c0.1,0,0.2-0.1,0.3-0.1c0-4.5,0-9,0-13.5
		c-0.7,0-1.4,0-2.1,0c-0.7,0-1.4,0-2.1-0.1c-2.1-0.2-3.4-1.4-3.6-3.5c-0.1-0.8-0.1-1.6-0.1-2.4c0-0.6,0-1.2,0-1.8
		c-5.9,0.1-11.8,0.3-17.6,0.4c0,0,0-0.1,0-0.1C15.2,72,21,71.7,27,71.3c0-8.6,0-17,0-25.5c2.7,0,5.3,0,8,0c0-4.5,0-9,0-13.6
		c-2.7,0-5.3,0-8,0c0-6,0-11.9,0-17.8c-6.8,0-13.5,0-20.2,0c0,6,0,11.9,0,17.9C4.4,32.3,2.2,32.3,0,32.3z"/>
	<path fill="#FFFFFF" d="M228.2,12.8c0,26.9,0,53.7,0,80.5c6.8,0,13.5,0,20.1,0c0-26.8,0-53.6,0-80.5
		C241.6,12.8,234.9,12.8,228.2,12.8z"/>
	<path fill="#FFFFFF" d="M149.2,76.2c-0.1,0-0.2,0-0.2,0c-1.3-9.7-2.5-19.4-3.8-29.1c-5.9,2.2-11.7,4.4-17.5,6.5
		c3.1,13.2,6.3,26.4,9.4,39.6c0.1,0,0.1,0.1,0.2,0.1c7.8,0,15.5,0,23.3,0c0.4,0,0.5-0.2,0.6-0.5c1.7-7,3.4-14,5.1-21.1
		c2.9-11.7,5.7-23.4,8.6-35.1c0.3-1.3,0.6-2.6,1-4c-2.2,1.1-4.2,2.3-6.3,3.3c-5.1,2.5-10.2,4.9-15.3,7.3c-0.4,0.2-0.7,0.3-0.8,0.8
		c-0.4,3.1-0.8,6.1-1.2,9.2c-0.4,3.1-0.8,6.3-1.2,9.4c-0.5,3.6-0.9,7.2-1.4,10.8C149.5,74.4,149.4,75.3,149.2,76.2z"/>
	<path fill="#FFFFFF" d="M72.7,30.8C64,29.9,58.5,33.9,55.8,42c-0.1,0-0.1-0.1-0.2-0.1c0-3.2,0-6.4,0-9.6c-6.6,0-13.1,0-19.5,0
		c0,12.7,0,25.3,0,38.1c6.8-0.9,13.5-1.9,20.2-2.8c0-2.7,0-5.2,0-7.7c0-1.1,0.1-2.2,0.3-3.3c0.5-3.2,2.3-5.5,5.5-6.5
		c1.5-0.5,3.2-0.8,4.8-0.8c2-0.1,3.9,0.1,5.9,0.2C72.7,43.3,72.7,37,72.7,30.8z"/>
	<path fill="#FFFFFF" d="M74.7,63.9c0.4-0.1,0.6-0.1,0.8-0.1c5.5-1.4,11-2.7,16.4-4.1c9.6-2.5,18.9-5.7,28.2-9.1
		c0.5-0.2,0.7-0.4,0.6-0.9c-0.2-1.5-0.2-3-0.4-4.4c-0.9-5.9-4-10.1-9.6-12.4c-4.1-1.7-8.4-2-12.7-2.1c-3-0.1-5.9,0.2-8.8,0.7
		c-8,1.4-14.3,6.9-15.6,14.8c-0.3,1.6-0.3,3.3-0.5,5c6,0,11.8,0,17.5,0c0.2-1.3,0.3-2.6,0.5-3.9c0.4-2,1.4-3.5,3.5-3.9
		c0.9-0.2,1.8-0.2,2.7-0.2c2.1,0.1,3.6,1.3,4.1,3.3c0.4,1.6,0.4,3.2,0,4.8c-0.6,2.1-2.3,3.2-4.2,3.8c-2.7,0.8-5.4,1.4-8.1,2
		c-3.4,0.8-6.7,1.7-9.8,3.3C77.7,61.2,76.1,62.3,74.7,63.9z"/>
	<path fill="#FFFFFF" d="M174.4,7.3c0.2,0.2,0.3,0.2,0.4,0.3c2.8,1.9,5.6,3.8,8.3,5.7c0.4,0.3,0.8,0.2,1.2,0.1
		c13.6-3.9,27.2-7.9,40.8-11.8c0.9-0.3,1.9-0.5,2.8-0.7c-2.5,1.1-5,2-7.5,2.9c-10.8,3.8-21.5,7.7-32.3,11.5c-0.5,0.2-0.7,0.4-0.7,1
		c0.1,2,0.2,4,0.3,5.9c0.1,1.2,0.2,2.3,0.2,3.6c2.7-1.6,5.3-3.2,8-4.8c-1.1-0.7-2.2-1.4-3.3-2.1c11.4-5.6,22.7-11.2,33.9-16.7
		c0,0.1,0.1,0.1,0.1,0.2c-10.1,5.6-20.3,11.1-30.5,16.7c3.8,2.4,7.6,4.7,11.4,7.1C215.3,17.5,223,8.8,230.9,0
		C212,2.5,193.3,4.9,174.4,7.3z"/>
	<path fill="#FFFFFF" d="M56.3,93.3c0-7.9,0-15.8,0-23.7C55.1,69.7,54,69.9,53,70c-2,0.2-4.1,0.4-6.1,0.6c-3.3,0.3-6.6,0.6-10,0.8
		c-0.7,0-0.9,0.3-0.9,0.9c0,6.7,0,13.5,0,20.2c0,0.3,0,0.5,0,0.8C42.8,93.3,49.5,93.3,56.3,93.3z"/>
	<path fill="#FFFFFF" d="M126.4,48.3c5.9-2.6,11.7-5.1,17.4-7.6c0.4-0.2,0.5-0.4,0.4-0.8c-0.2-1.4-0.4-2.7-0.5-4.1
		c-0.2-1.2-0.3-2.4-0.5-3.6c-6.9,0-13.7,0-20.6,0C123.9,37.6,125.1,42.9,126.4,48.3z"/>
	<path fill="#FFFFFF" d="M160.7,32.4c0,0,0-0.1,0-0.1c-1.9,0-3.8,0-5.8,0c-0.1,1.1-0.3,2.1-0.4,3.3
		C156.7,34.5,158.7,33.5,160.7,32.4z"/>
	<path fill="#ED1B24" d="M255.1,96.6c0.4,0,0.6,0,0.9,0c5.5,0,11,0,16.5,0c0.6,0,0.8,0.1,0.9,0.8c0.2,2.2,1.8,3.7,4.1,3.9
		c1.1,0.1,2.2,0,3.3-0.2c2.1-0.4,3.1-2,3.6-3.8c0.3-1,0.4-2.1,0.4-3.1c0-3.7,0-7.4,0-11c0-0.2,0-0.4-0.2-0.6
		c-0.1,0.2-0.2,0.4-0.4,0.6c-0.7,1.3-1.4,2.7-2.2,3.9c-1.5,2.1-3.7,3.1-6.1,3.9c-4,1.2-8,1-11.9-0.6c-3.2-1.4-5.4-4-7-7
		c-2.1-4-3.1-8.3-3.6-12.8c-0.5-4.2-0.5-8.4-0.4-12.6c0.2-5.7,0.8-11.4,3-16.7c1.4-3.5,3.6-6.5,7-8.3c2.2-1.2,4.6-1.7,7.1-1.9
		c3.3-0.3,6.5,0.4,9.3,2.1c2.8,1.6,4.3,4.2,5.4,7.1c0.1,0.3,0.2,0.5,0.3,0.8c0.1,0,0.2,0,0.2,0c0-2.8,0-5.5,0-8.3
		c6.3,0,12.6,0,18.9,0c0,0.3,0,0.6,0,0.8c0,19.6,0,39.2,0,58.8c0,3.4-0.4,6.8-1.8,10c-2.4,5.4-6.7,8.5-12.2,10.1
		c-3,0.9-6.1,1.3-9.2,1.4c-4.4,0.2-8.8-0.1-13.1-1.1c-3.2-0.7-6.1-2.1-8.5-4.5c-2.4-2.5-3.7-5.5-4.1-8.9
		C255.2,98.4,255.1,97.5,255.1,96.6z M273.1,61.2c0,1.3,0,2.7,0,4c0.1,1.3,0.1,2.7,0.3,4c0.2,1.8,0.6,3.7,1.5,5.3
		c1.3,2.4,5.3,2.9,7.2,1c1-1,1.5-2.3,1.7-3.6c0.4-2.8,0.7-5.5,0.8-8.3c0.1-3.2-0.1-6.4-0.2-9.6c-0.1-2-0.4-4-1.4-5.9
		c-1.2-2.4-4.4-3.3-6.7-1.8c-0.4,0.2-0.8,0.6-1,0.9c-0.5,1.1-1.1,2.3-1.4,3.5C273.1,54.2,273,57.7,273.1,61.2z"/>
	<path fill="#ED1B24" d="M360,62.4c0,4.8-0.3,9.5-1.3,14.2c-0.8,3.7-2.1,7.1-4.5,10.1c-2.9,3.5-6.5,5.7-10.9,6.8
		c-3.8,0.9-7.7,1.1-11.6,0.9c-3-0.1-6-0.5-8.9-1.3c-6.5-1.9-10.7-6.2-12.7-12.6c-0.8-2.5-1.2-5.1-1.4-7.7c-0.4-4.3-0.6-8.7-0.4-13
		c0.2-4.8,0.5-9.6,2.1-14.2c2.8-8.1,8.5-12.8,16.9-14.3c5.9-1,11.7-0.8,17.5,0.7c3.2,0.9,6,2.4,8.4,4.7c2.5,2.3,3.9,5.3,4.9,8.5
		c0.9,2.7,1.2,5.6,1.4,8.4C359.8,56.6,359.9,59.5,360,62.4z M339.8,62.1c-0.1-2.9-0.2-6.6-0.4-10.3c-0.1-1.9-0.4-3.9-1.2-5.7
		c-0.7-1.6-2-2.3-3.6-2.4c-1.9-0.1-3.5,0.3-4.4,2.2c-0.4,0.8-0.7,1.7-0.9,2.6c-0.8,3.2-0.8,6.6-0.8,9.9c-0.1,5.3-0.1,10.7,0.4,16
		c0.2,1.7,0.5,3.4,1.2,5c0.9,2,2.6,2.6,4.6,2.4c1.8-0.1,3-1,3.7-2.7c0.9-2.3,1.1-4.7,1.2-7.1C339.7,69,339.7,66,339.8,62.1z"/>
	<path d="M206.1,72c6.1,0,12.1,0,18.3,0c-0.1,1.2-0.1,2.4-0.2,3.6c-0.3,2.8-0.9,5.5-2,8.1c-2.4,5.4-6.6,8.6-12.3,9.9
		c-4,0.9-8.1,1.1-12.2,0.9c-3.2-0.2-6.4-0.6-9.4-1.6c-5.8-1.9-9.3-5.9-11.3-11.6c-1-3-1.5-6.1-1.9-9.3c-0.5-4.1-0.5-8.3-0.4-12.4
		c0.2-5.4,0.7-10.8,2.8-16c2.7-6.9,7.8-10.9,15.1-12.3c5.3-1,10.7-1,16.1,0c7.5,1.5,12.2,6,14.5,13.2c1,3.2,1.6,6.4,1.7,9.7
		c0.2,3.7,0.1,7.4,0.2,11.1c0,0.2,0,0.4,0,0.7c-10,0-20,0-29.9,0c-0.1,0.1-0.1,0.1-0.1,0.2c0.1,3.7,0,7.4,0.3,11.2
		c0.2,2.7,1.8,4.4,4.1,4.9c2.6,0.6,4.9-0.6,5.9-3.1c0.7-1.8,0.9-3.7,1-5.6C206.1,73.2,206.1,72.7,206.1,72z M206,55.2
		c0-2.9,0.1-5.7-0.7-8.4c-0.5-1.7-1.4-2.9-3.2-3.4c-0.7-0.2-1.4-0.2-2.1-0.2c-2.3,0-3.8,1-4.4,3.2c-0.4,1.6-0.6,3.2-0.8,4.8
		c-0.1,1.3,0,2.6,0,4C198.6,55.2,202.2,55.2,206,55.2z"/>
	<path d="M0,32.3c2.2,0,4.4,0,6.7,0c0-6,0-11.9,0-17.9c6.8,0,13.5,0,20.2,0c0,5.9,0,11.8,0,17.8c2.7,0,5.3,0,8,0c0,4.6,0,9,0,13.6
		c-2.6,0-5.2,0-8,0c0,8.5,0,16.9,0,25.5C21,71.7,15.2,72,9.3,72.4c0,0,0,0.1,0,0.1c5.8-0.1,11.7-0.3,17.6-0.4c0,0.6,0,1.2,0,1.8
		c0,0.8,0,1.6,0.1,2.4c0.2,2.1,1.5,3.3,3.6,3.5c0.7,0.1,1.4,0.1,2.1,0.1c0.7,0,1.4,0,2.1,0c0,4.5,0,9,0,13.5c-0.1,0-0.2,0.1-0.3,0.1
		c-4.2,0.1-8.4,0.3-12.6,0.2c-2.4,0-4.9-0.2-7.3-0.6c-4.3-0.7-6.7-3.6-7.4-7.8c-0.3-1.9-0.6-3.9-0.6-5.9c-0.1-10.8,0-21.6,0-32.5
		c0-0.3,0-0.6,0-0.9c-2.3,0-4.4,0-6.7,0C0,41.4,0,36.9,0,32.3z"/>
	<path d="M228.2,12.8c6.7,0,13.4,0,20.1,0c0,26.8,0,53.6,0,80.5c-6.7,0-13.4,0-20.1,0C228.2,66.5,228.2,39.7,228.2,12.8z"/>
	<path d="M149.2,76.2c0.1-0.9,0.3-1.8,0.4-2.7c0.5-3.6,0.9-7.2,1.4-10.8c0.4-3.1,0.8-6.3,1.2-9.4c0.4-3.1,0.8-6.1,1.2-9.2
		c0.1-0.5,0.4-0.6,0.8-0.8c5.1-2.4,10.2-4.8,15.3-7.3c2.1-1,4.1-2.2,6.3-3.3c-0.3,1.4-0.6,2.7-1,4c-2.9,11.7-5.7,23.4-8.6,35.1
		c-1.7,7-3.4,14-5.1,21.1c-0.1,0.3-0.2,0.5-0.6,0.5c-7.8,0-15.5,0-23.3,0c0,0-0.1,0-0.2-0.1c-3.1-13.2-6.2-26.4-9.4-39.6
		c5.8-2.2,11.6-4.3,17.5-6.5c1.3,9.7,2.5,19.4,3.8,29.1C149.1,76.2,149.1,76.2,149.2,76.2z"/>
	<path d="M120.8,55.8c0,0.4,0,0.7,0,0.9c0,9,0,18.1,0.1,27.1c0,3,0,5.2,1.7,9.4c-6.5,0-12.9,0-19.5,0c-0.9-2.2-0.9-4.5-1.3-6.9
		c-0.2,0.2-0.3,0.2-0.3,0.3c-1.9,4.4-5.4,6.7-9.9,7.5c-4,0.8-7.9,0.5-11.7-0.9c-3.8-1.4-6.3-4.1-7.6-7.8c-1.9-5.7-1.8-11.6-0.1-17.4
		c0.2-0.6,0.4-1,1.2-1.1c12.8-2.1,25.5-4.9,38-8.5c2.9-0.8,5.7-1.7,8.6-2.6C120.2,56,120.5,55.9,120.8,55.8z M101.7,63.8
		c-0.9,1.1-2,1.4-3.1,1.7c-1.5,0.4-3,0.9-4.4,1.5c-1.8,0.8-2.9,2.2-3.3,4.2c-0.4,1.8-0.5,3.6-0.2,5.4c0.2,1.4,0.8,2.7,1.9,3.6
		c2.3,2,6.4,1.2,7.9-1.6c1-1.8,1.2-3.7,1.3-5.7c0.1-2.8,0-5.5,0.1-8.3C101.8,64.4,101.8,64.2,101.7,63.8z"/>
	<path d="M72.7,30.8c0,6.3,0,12.5,0,18.7c-2-0.1-3.9-0.3-5.9-0.2c-1.6,0.1-3.2,0.4-4.8,0.8c-3.2,1-5,3.3-5.5,6.5
		c-0.2,1.1-0.3,2.2-0.3,3.3c0,2.5,0,5.1,0,7.7c-6.7,0.9-13.4,1.9-20.2,2.8c0-12.8,0-25.4,0-38.1c6.5,0,12.9,0,19.5,0
		c0,3.2,0,6.4,0,9.6c0.1,0,0.1,0.1,0.2,0.1C58.5,33.9,64,29.9,72.7,30.8z"/>
	<path d="M74.7,63.9c1.4-1.6,3-2.7,4.7-3.6c3.1-1.6,6.4-2.5,9.8-3.3c2.7-0.6,5.4-1.3,8.1-2c2-0.6,3.6-1.6,4.2-3.8
		c0.5-1.6,0.5-3.2,0-4.8c-0.5-1.9-2-3.2-4.1-3.3c-0.9,0-1.8,0-2.7,0.2c-2.1,0.4-3.1,1.9-3.5,3.9c-0.2,1.3-0.3,2.5-0.5,3.9
		c-5.8,0-11.6,0-17.5,0c0.2-1.7,0.2-3.3,0.5-5c1.3-7.9,7.6-13.4,15.6-14.8c2.9-0.5,5.9-0.8,8.8-0.7c4.3,0.2,8.6,0.5,12.7,2.1
		c5.6,2.3,8.6,6.5,9.6,12.4c0.2,1.5,0.3,2.9,0.4,4.4c0.1,0.5-0.1,0.7-0.6,0.9c-9.3,3.4-18.7,6.5-28.2,9.1
		c-5.5,1.5-10.9,2.8-16.4,4.1C75.3,63.8,75.1,63.9,74.7,63.9z"/>
	<path d="M174.4,7.3C193.3,4.9,212,2.5,230.9,0c-7.9,8.8-15.6,17.5-23.4,26.2c-3.8-2.4-7.5-4.7-11.4-7.1
		c10.2-5.6,20.4-11.2,30.5-16.7c0-0.1-0.1-0.1-0.1-0.2c-11.3,5.6-22.6,11.1-33.9,16.7c1.1,0.7,2.2,1.4,3.3,2.1
		c-2.7,1.6-5.3,3.2-8,4.8c-0.1-1.3-0.2-2.4-0.2-3.6c-0.1-2-0.2-4-0.3-5.9c0-0.6,0.2-0.8,0.7-1c10.8-3.8,21.6-7.7,32.3-11.5
		c2.5-0.9,5.1-1.8,7.5-2.9c-0.9,0.2-1.9,0.5-2.8,0.7c-13.6,3.9-27.2,7.9-40.8,11.8c-0.4,0.1-0.8,0.2-1.2-0.1
		c-2.8-1.9-5.5-3.8-8.3-5.7C174.7,7.6,174.6,7.5,174.4,7.3z"/>
	<path d="M56.3,93.3c-6.8,0-13.4,0-20.2,0c0-0.3,0-0.5,0-0.8c0-6.7,0-13.5,0-20.2c0-0.7,0.2-0.9,0.9-0.9c3.3-0.2,6.7-0.5,10-0.8
		c2-0.2,4.1-0.4,6.1-0.6c1.1-0.1,2.2-0.3,3.3-0.4C56.3,77.5,56.3,85.4,56.3,93.3z"/>
	<path d="M126.4,48.3c-1.3-5.4-2.5-10.7-3.8-16c6.9,0,13.7,0,20.6,0c0.2,1.2,0.3,2.4,0.5,3.6c0.2,1.4,0.3,2.7,0.5,4.1
		c0.1,0.4,0,0.6-0.4,0.8C138.1,43.3,132.3,45.8,126.4,48.3z"/>
	<path d="M160.7,32.4c-2,1.1-4.1,2.1-6.3,3.2c0.2-1.2,0.3-2.3,0.4-3.3c2,0,3.9,0,5.8,0C160.7,32.4,160.7,32.4,160.7,32.4z"/>
</g>
</svg>
