<?xml version="1.0" encoding="utf-8"?>
<!-- Generator: Adobe Illustrator 17.1.0, SVG Export Plug-In . SVG Version: 6.00 Build 0)  -->
<!DOCTYPE svg PUBLIC "-//W3C//DTD SVG 1.1//EN" "http://www.w3.org/Graphics/SVG/1.1/DTD/svg11.dtd">
<svg version="1.1" id="Layer_1" xmlns="http://www.w3.org/2000/svg" xmlns:xlink="http://www.w3.org/1999/xlink" x="0px" y="0px"
	 width="84px" height="84px" viewBox="0 0 84 84" enable-background="new 0 0 84 84" xml:space="preserve">
<g>
	<g>
		<g>
			<g>
				<g>
					<g>
						<path fill="#FFFFFF" d="M23.6,44c0,0.9-0.3,1.6-1,2.1c-0.7,0.5-1.6,0.8-2.7,0.8c-1.1,0-2-0.2-2.8-0.6v-2
							c0.7,0.3,1.2,0.5,1.7,0.6c0.5,0.1,0.9,0.2,1.3,0.2c0.5,0,0.8-0.1,1.1-0.3c0.2-0.2,0.4-0.4,0.4-0.8c0-0.2-0.1-0.4-0.2-0.5
							c-0.1-0.2-0.3-0.3-0.5-0.4c-0.2-0.1-0.6-0.4-1.3-0.7c-0.6-0.3-1.1-0.6-1.4-0.8s-0.5-0.6-0.7-0.9s-0.3-0.8-0.3-1.2
							c0-0.9,0.3-1.6,0.9-2.1c0.6-0.5,1.4-0.8,2.5-0.8c0.5,0,1,0.1,1.5,0.2c0.5,0.1,1,0.3,1.5,0.5L22.9,39c-0.5-0.2-1-0.4-1.3-0.5
							c-0.3-0.1-0.7-0.1-1-0.1c-0.4,0-0.7,0.1-0.9,0.3s-0.3,0.4-0.3,0.7c0,0.2,0,0.3,0.1,0.5s0.2,0.3,0.4,0.4
							c0.2,0.1,0.6,0.4,1.3,0.7c0.9,0.4,1.6,0.9,1.9,1.3S23.6,43.4,23.6,44z"/>
						<path fill="#FFFFFF" d="M30.4,38.4c-0.8,0-1.4,0.3-1.9,0.9s-0.7,1.4-0.7,2.5c0,2.2,0.8,3.3,2.5,3.3c0.7,0,1.6-0.2,2.5-0.5v1.8
							c-0.8,0.3-1.7,0.5-2.7,0.5c-1.5,0-2.6-0.4-3.3-1.3c-0.8-0.9-1.2-2.1-1.2-3.8c0-1,0.2-1.9,0.6-2.7s0.9-1.4,1.6-1.8
							c0.7-0.4,1.5-0.6,2.5-0.6c1,0,1.9,0.2,2.9,0.7l-0.7,1.7c-0.4-0.2-0.8-0.3-1.1-0.5S30.7,38.4,30.4,38.4z"/>
						<path fill="#FFFFFF" d="M37.9,43v3.8h-2.1v-10h2.9c1.4,0,2.4,0.2,3,0.7s1,1.2,1,2.3c0,0.6-0.2,1.1-0.5,1.6s-0.8,0.8-1.4,1.1
							c1.5,2.2,2.5,3.7,2.9,4.4h-2.4L39,43H37.9z M37.9,41.3h0.7c0.7,0,1.2-0.1,1.5-0.3s0.5-0.6,0.5-1.1c0-0.5-0.2-0.8-0.5-1
							c-0.3-0.2-0.8-0.3-1.5-0.3h-0.6V41.3z"/>
						<path fill="#FFFFFF" d="M54.7,41.8c0,1.7-0.4,2.9-1.2,3.8s-2,1.3-3.5,1.3s-2.7-0.4-3.5-1.3s-1.2-2.2-1.2-3.8
							c0-1.7,0.4-2.9,1.2-3.8c0.8-0.9,2-1.3,3.5-1.3s2.7,0.4,3.5,1.3C54.3,38.9,54.7,40.1,54.7,41.8z M47.5,41.8
							c0,1.1,0.2,2,0.6,2.5s1.1,0.8,1.9,0.8c1.7,0,2.5-1.1,2.5-3.4c0-2.3-0.8-3.4-2.5-3.4c-0.8,0-1.5,0.3-1.9,0.9
							S47.5,40.7,47.5,41.8z"/>
						<path fill="#FFFFFF" d="M57.5,46.8v-10h2.1v8.2h4.1v1.8H57.5z"/>
						<path fill="#FFFFFF" d="M66.1,46.8v-10h2.1v8.2h4.1v1.8H66.1z"/>
					</g>
				</g>
				<circle fill="none" stroke="#FFFFFF" stroke-miterlimit="10" cx="42" cy="42" r="41"/>
			</g>
		</g>
	</g>
	<g>
		<g>
			<g>
				<polygon fill="#E6E7E8" points="42,64.9 34,56.6 34.4,56.2 42,64 49.6,56.2 50,56.6 				"/>
			</g>
		</g>
	</g>
</g>
</svg>
